<?xml version="1.0" encoding="UTF-8"?>
<svg version="1.1" xmlns="http://www.w3.org/2000/svg" width="768" height="768">
<path d="M0 0 C253.44 0 506.88 0 768 0 C768 253.44 768 506.88 768 768 C514.56 768 261.12 768 0 768 C0 514.56 0 261.12 0 0 Z " fill="#0A0A0A" transform="translate(0,0)"/>
<path d="M0 0 C-2.93498907 1.95665938 -4.57109706 2.49654396 -7.9375 3.25 C-16.14004539 5.21703726 -24.17269889 7.69891762 -32.23779297 10.15869141 C-35.03344366 11.01018622 -37.83094687 11.85534378 -40.62890625 12.69921875 C-54.79784356 16.98068886 -68.95700006 21.31900002 -83 26 C-83.16435547 27.37671875 -83.16435547 27.37671875 -83.33203125 28.78125 C-84.10634576 34.7743184 -84.8660711 40.27279176 -87.21484375 45.84375 C-91.5430607 57.73019655 -92.8076045 71.23575418 -95.0078125 83.6953125 C-95.18256104 84.67693359 -95.35730957 85.65855469 -95.53735352 86.66992188 C-95.88038381 88.60020483 -96.21958359 90.53117351 -96.55444336 92.46289062 C-97.38858427 97.15000846 -98.46618344 101.48584071 -100 106 C-100.47699779 108.54215006 -100.91288194 111.07129904 -101.3125 113.625 C-102.3925038 120.19026723 -103.8598408 126.56994296 -105.5625 133 C-107.43867568 140.12698624 -108.72912744 147.10091685 -109.36743164 154.4453125 C-109.74086269 158.60031727 -110.62511164 162.07445667 -112 166 C-113.03888203 169.7765932 -113.98894239 173.57483922 -114.9375 177.375 C-115.34053345 178.98955078 -115.34053345 178.98955078 -115.75170898 180.63671875 C-117.47602485 187.64093278 -118.96768675 194.62231048 -120.21875 201.7265625 C-121.3914895 208.31516767 -122.82173055 214.85428663 -124.19946289 221.40234375 C-124.4030542 222.37042969 -124.60664551 223.33851563 -124.81640625 224.3359375 C-125.01693604 225.28903809 -125.21746582 226.24213867 -125.42407227 227.22412109 C-125.96555863 229.83399813 -126.48601117 232.44709056 -127 235.0625 C-128.03600948 240.27620087 -129.23345745 245.44798667 -130.4375 250.625 C-131.97511603 257.29118976 -133.42196794 263.95266136 -134.625 270.6875 C-135.59360018 276.08084193 -136.84845845 281.26989871 -138.37890625 286.52734375 C-139.17948612 289.71455797 -139.49275246 292.85022232 -139.69140625 296.125 C-140 298 -140 298 -142 301 C-144.16703224 301.36914349 -144.16703224 301.36914349 -146.9100647 301.36076355 C-148.46660011 301.36694954 -148.46660011 301.36694954 -150.05458069 301.3732605 C-151.19753098 301.36247467 -152.34048126 301.35168884 -153.51806641 301.34057617 C-154.71804764 301.34101425 -155.91802887 301.34145233 -157.15437317 301.34190369 C-160.44982394 301.34016861 -163.74471466 301.32509762 -167.04006624 301.30418181 C-170.48204692 301.2854599 -173.92403461 301.28366813 -177.36605835 301.28010559 C-183.88614358 301.27077188 -190.40607837 301.24614031 -196.92609727 301.21605712 C-204.34798846 301.18255423 -211.76988674 301.16603748 -219.19183469 301.15097082 C-234.46131034 301.11959179 -249.73063579 301.0668057 -265 301 C-266.79348923 294.32180432 -266.18807149 289.23135406 -264.1875 282.6875 C-262.46701561 277.03706705 -261.3447653 271.52986845 -260.5 265.6875 C-259.38511405 258.01300808 -257.83723937 250.55022596 -255.96484375 243.02734375 C-255.0296603 239.23738978 -254.27633538 235.42100387 -253.5246582 231.59106445 C-252.64546325 227.24909328 -251.62705426 222.93994436 -250.625 218.625 C-248.73436329 210.40821728 -247.00020135 202.17332289 -245.37719727 193.89990234 C-244.3099298 188.48096921 -243.12008522 183.10526433 -241.84765625 177.73046875 C-240.66409901 172.52172605 -239.58407619 167.29272726 -238.5 162.0625 C-238.28311523 161.01827881 -238.06623047 159.97405762 -237.84277344 158.89819336 C-236.91731925 154.4383889 -235.99533875 149.97793193 -235.08203125 145.515625 C-234.82808594 144.29359375 -234.57414062 143.0715625 -234.3125 141.8125 C-234.10238281 140.78769531 -233.89226562 139.76289063 -233.67578125 138.70703125 C-233 136 -233 136 -232.03173828 133.6652832 C-230.9950457 130.98720159 -230.37323754 128.46276706 -229.81640625 125.6484375 C-229.61080078 124.63136719 -229.40519531 123.61429687 -229.19335938 122.56640625 C-228.98517578 121.51324219 -228.77699219 120.46007812 -228.5625 119.375 C-228.15063447 117.29878198 -227.73528393 115.22325218 -227.31640625 113.1484375 C-227.13537354 112.23239746 -226.95434082 111.31635742 -226.76782227 110.37255859 C-225.66837691 105.54338907 -224.30315276 100.77822679 -223 96 C-281.74 96 -340.48 96 -401 96 C-406.348144 118.61203507 -406.348144 118.61203507 -411.25 141.3125 C-411.49540527 142.50705811 -411.74081055 143.70161621 -411.99365234 144.93237305 C-413.15013747 150.6111696 -414.26677652 156.2912251 -415.23193359 162.00585938 C-415.36164551 162.76705078 -415.49135742 163.52824219 -415.625 164.3125 C-415.82826904 165.51567871 -416.03153809 166.71885742 -416.2409668 167.95849609 C-416.93742193 171.83831054 -417.87835791 175.62975389 -418.87109375 179.4453125 C-420.8166591 187.06330705 -422.4602616 194.72115999 -424.00848389 202.42849731 C-424.74866098 206.11027024 -425.50217224 209.78932262 -426.25390625 213.46875 C-426.40210815 214.1955043 -426.55031006 214.92225861 -426.70300293 215.67103577 C-428.05832804 222.30912509 -429.44934092 228.93913665 -430.875 235.5625 C-431.07794678 236.51906494 -431.28089355 237.47562988 -431.48999023 238.46118164 C-431.67634033 239.32090576 -431.86269043 240.18062988 -432.0546875 241.06640625 C-432.21437012 241.80834229 -432.37405273 242.55027832 -432.53857422 243.31469727 C-433 245 -433 245 -434 246 C-434.27142074 247.35135245 -434.48990422 248.7134613 -434.68359375 250.078125 C-434.80669922 250.90957031 -434.92980469 251.74101563 -435.05664062 252.59765625 C-435.30826975 254.35002726 -435.55829972 256.10262872 -435.80664062 257.85546875 C-436.45478892 262.21451793 -437.28557291 265.92317338 -439 270 C-439.52856919 272.50170967 -440.00681742 274.98223325 -440.4375 277.5 C-444.13981632 298.13981632 -444.13981632 298.13981632 -446 300 C-447.58154848 300.09594225 -449.16739125 300.1218796 -450.75184631 300.12025452 C-452.2936985 300.12231651 -452.2936985 300.12231651 -453.86669922 300.12442017 C-455.57249146 300.11902725 -455.57249146 300.11902725 -457.31274414 300.11352539 C-459.09786659 300.11374443 -459.09786659 300.11374443 -460.91905212 300.1139679 C-464.19163274 300.11338894 -467.46417107 300.10835981 -470.73674321 300.10139394 C-474.15338665 300.09515967 -477.57003083 300.09455654 -480.98667908 300.09336853 C-487.46069267 300.09025543 -493.93468946 300.08204233 -500.40869564 300.07201904 C-507.7773792 300.06085725 -515.14606355 300.05534729 -522.51475346 300.05032361 C-537.67651169 300.03985969 -552.83825417 300.02226066 -568 300 C-568.03548744 295.58968219 -567.88956087 291.59595317 -566.9765625 287.27734375 C-566.76 286.24416016 -566.5434375 285.21097656 -566.3203125 284.14648438 C-566.09085938 283.08751953 -565.86140625 282.02855469 -565.625 280.9375 C-565.40328125 279.87466797 -565.1815625 278.81183594 -564.953125 277.71679688 C-563.884023 272.68258424 -562.62954041 267.88199708 -561 263 C-560.25628316 259.68112744 -559.62803214 256.34242952 -559 253 C-558.69125536 251.40342279 -558.38138274 249.80706323 -558.0703125 248.2109375 C-557.91691406 247.42332031 -557.76351562 246.63570312 -557.60546875 245.82421875 C-556.23403127 238.83323259 -554.77741319 231.89972206 -553 225 C-549.83426622 212.6860434 -547.44029866 200.18606837 -545.4375 187.6328125 C-544.73415201 183.4001648 -543.87352588 179.20035847 -543 175 C-542.34 175 -541.68 175 -541 175 C-540.96132813 173.71029297 -540.96132813 173.71029297 -540.921875 172.39453125 C-540.56576297 164.97283271 -539.46326389 158.62130233 -537.109375 151.59375 C-533.68416401 140.49799607 -531.94132524 128.8943531 -530.14868164 117.44335938 C-529.1771479 111.49675502 -527.67926345 105.86556886 -525.8671875 100.11328125 C-524.75994488 96.3979279 -524.75994488 96.3979279 -524 90 C-547.1 90 -570.2 90 -594 90 C-590.64051951 87.76034634 -588.70312153 87.47826331 -584.734375 86.9140625 C-584.06750671 86.81661743 -583.40063843 86.71917236 -582.71356201 86.61877441 C-581.2099864 86.39982303 -579.70590082 86.18435494 -578.20141602 85.97174072 C-573.74133979 85.34088491 -569.2851211 84.68344742 -564.828125 84.03125 C-563.79623047 83.88100372 -562.76433594 83.73075745 -561.70117188 83.57595825 C-552.03921349 82.16470775 -542.3864666 80.69562048 -532.734375 79.21875 C-531.08941314 78.9671925 -529.44444954 78.71564638 -527.79948425 78.46411133 C-525.27514201 78.07807772 -522.75080086 77.69203705 -520.22646618 77.30595398 C-492.83049024 73.11668918 -465.42797105 69.00671393 -437.98458862 65.13827515 C-423.41825398 63.08401325 -408.87664769 60.92877604 -394.35482788 58.58050537 C-378.05738446 55.94765136 -361.71561739 53.63912785 -345.36547852 51.35913086 C-344.3527034 51.21686569 -343.33992828 51.07460052 -342.29646301 50.92802429 C-340.4092753 50.66304249 -338.52175645 50.40040268 -336.63383484 50.14070129 C-331.4437218 49.41051988 -326.32389997 48.49834351 -321.19058228 47.44110107 C-318.71548954 46.94271027 -316.24103894 46.55019277 -313.73828125 46.21875 C-312.85487061 46.10015625 -311.97145996 45.9815625 -311.0612793 45.859375 C-310.15418213 45.74078125 -309.24708496 45.6221875 -308.3125 45.5 C-307.35061768 45.37109375 -306.38873535 45.2421875 -305.39770508 45.109375 C-301.21206116 44.54965663 -297.02516351 44.00097921 -292.8359375 43.46875 C-285.66766829 42.54777323 -278.58082546 41.40955297 -271.4753418 40.10546875 C-265.83397964 39.0931296 -260.19043842 38.39976755 -254.49414062 37.78271484 C-249.74997328 37.25064804 -245.07987752 36.52288907 -240.3828125 35.65625 C-230.72450181 33.91055206 -221.03123758 32.41750971 -211.32763672 30.94775391 C-208.39890039 30.50362439 -205.4709184 30.05475165 -202.54296875 29.60546875 C-191.68408881 27.94924128 -180.81605337 26.42802439 -169.9209137 25.03027344 C-159.23569853 23.65560734 -148.62168373 21.95196705 -138.0012207 20.14770508 C-127.53175981 18.36961918 -117.08155639 16.59717868 -106.51953125 15.45703125 C-103.6527614 15.0847648 -100.85779586 14.61738459 -98.01904297 14.08422852 C-92.088129 12.99669114 -86.14007934 12.07853323 -80.17578125 11.1953125 C-77.90559845 10.85547215 -75.63541617 10.51562829 -73.36523438 10.17578125 C-69.86035381 9.65324514 -66.35537428 9.13137929 -62.8503418 8.60986328 C-49.52408639 6.6245985 -36.21225827 4.59323481 -22.93489075 2.30032349 C-15.30844107 0.99711496 -7.75790988 -0.19892077 0 0 Z " fill="#DCDCDB" transform="translate(673,350)"/>
<path d="M0 0 C40.26 0 80.52 0 122 0 C121.17014431 7.46870123 120.0089485 14.60320127 118.52587891 21.94702148 C118.12672032 23.92895811 117.73683295 25.9125666 117.34765625 27.89648438 C116.0769489 34.2404429 114.65283966 40.41079624 112.70556641 46.57885742 C111.35603277 51.20976576 110.52565288 55.95279962 109.625 60.6875 C107.95796548 69.25432959 106.20010548 77.79155066 104.3125 86.3125 C102.86013072 92.89995336 101.49662007 99.46603847 100.453125 106.1328125 C98.83269495 116.38622331 96.77020062 126.40896406 93.96484375 136.40234375 C91.40506717 145.9470977 89.65585426 155.68233427 87.76757812 165.37695312 C87.55423828 166.45783203 87.34089844 167.53871094 87.12109375 168.65234375 C86.9295874 169.63195068 86.73808105 170.61155762 86.54077148 171.62084961 C86 174 86 174 85 176 C84.65227358 177.93148876 84.34661809 179.87063507 84.0625 181.8125 C83.06706349 188.5463352 82.03520715 195.27115354 81 202 C168.12 202.495 168.12 202.495 257 203 C257 202.34 257 201.68 257 201 C257.66 201 258.32 201 259 201 C258.9071875 199.3603125 258.9071875 199.3603125 258.8125 197.6875 C258.80454382 193.15247832 259.94451353 189.27336381 261.21875 184.94921875 C261.99959446 182.00153093 262.46861124 179.14556265 262.875 176.125 C263.83876168 169.30577867 265.4622814 162.71211486 267.10620117 156.03320312 C268.67280157 149.58815922 269.96734316 143.14239677 271.01147461 136.59277344 C271.50031542 133.57806432 272.0878142 130.70394069 272.95703125 127.7734375 C273.83960702 124.58029822 274.42982178 121.56074157 274.94140625 118.296875 C275.91797802 112.17257906 277.36472532 106.24454366 278.9375 100.25 C281.15967303 91.56642125 283.09671611 82.93701322 284.63037109 74.10351562 C287.11161661 59.98303253 289.86676546 45.91881227 293.51318359 32.04785156 C294.96431198 26.47584681 295.88850784 20.88023841 296.6796875 15.1796875 C297.61629857 9.30458169 299.72826219 5.27173781 304 1 C306.08056545 0.75111103 306.08056545 0.75111103 308.70005798 0.75276184 C309.69134201 0.74856735 310.68262604 0.74437286 311.70394897 0.74005127 C312.79543243 0.74567078 313.88691589 0.75129028 315.01147461 0.75708008 C316.15786911 0.75518173 317.30426361 0.75328339 318.48539734 0.75132751 C322.29111477 0.74760994 326.09664315 0.75833861 329.90234375 0.76953125 C332.53788734 0.77072269 335.17343137 0.77117629 337.80897522 0.7709198 C343.33971526 0.77185698 348.87040052 0.78054729 354.40112305 0.79418945 C360.79721836 0.80990778 367.19325362 0.81518784 373.58936685 0.8144539 C379.73817683 0.81384359 385.88696403 0.81905774 392.03576851 0.82724571 C394.65411829 0.83043481 397.27246984 0.83240035 399.89082146 0.83313942 C403.54695546 0.83530088 407.20301317 0.84404128 410.85913086 0.85473633 C412.4933197 0.85405655 412.4933197 0.85405655 414.16052246 0.85336304 C415.15462631 0.85762802 416.14873016 0.86189301 417.17295837 0.86628723 C418.47017272 0.868801 418.47017272 0.868801 419.79359341 0.87136555 C422 1 422 1 425 2 C423.77324089 11.10688237 422.31413849 20.14577965 420.68359375 29.1875 C420.09775118 32.45482768 419.53740039 35.72441666 419 39 C418.34 39 417.68 39 417 39 C416.96132812 40.05574219 416.96132812 40.05574219 416.921875 41.1328125 C416.59185244 46.87820525 415.82421504 52.056265 414.125 57.5625 C412.06018316 64.260015 410.93092967 70.93369997 409.95166016 77.86743164 C409.08910895 83.91089105 409.08910895 83.91089105 408 85 C407.66321236 86.32265691 407.38308642 87.65976173 407.125 89 C406.95097656 89.90105469 406.77695312 90.80210937 406.59765625 91.73046875 C406.02606566 94.8574055 405.48089955 97.98778485 404.94140625 101.12036133 C403.26491022 110.81962543 401.17187378 120.35108685 398.76953125 129.8984375 C398.55022949 130.77072998 398.33092773 131.64302246 398.10498047 132.54174805 C397.67343291 134.25231166 397.23905542 135.96216491 396.80126953 137.67114258 C395.54184629 142.63466398 394.45847422 147.60492448 393.48022461 152.63110352 C392.91625542 155.41310302 392.24458487 158.15776525 391.55371094 160.91040039 C388.9875534 171.17375512 387.42980011 181.52563098 386 192 C385.34 192 384.68 192 384 192 C383.93941406 192.59167969 383.87882813 193.18335938 383.81640625 193.79296875 C383.73261719 194.58316406 383.64882813 195.37335938 383.5625 196.1875 C383.48128906 196.96480469 383.40007813 197.74210938 383.31640625 198.54296875 C382.99402379 201.04640786 382.49501895 203.52490524 382 206 C405.43 206 428.86 206 453 206 C453 206.33 453 206.66 453 207 C452.142854 207.12528076 451.28570801 207.25056152 450.40258789 207.37963867 C446.28909793 207.98139316 442.17574661 208.58408452 438.0625 209.1875 C437.30136902 209.29915497 436.54023804 209.41080994 435.75604248 209.52584839 C425.2269408 211.07167332 414.70236772 212.64464963 404.18200684 214.24884033 C393.89858173 215.81689332 383.6127314 217.35789321 373.3125 218.8125 C353.813455 221.56899266 334.33893915 224.49422377 314.85995483 227.38832092 C306.53100534 228.62542448 298.20126472 229.85708809 289.87109375 231.0859375 C269.32411269 234.11817467 248.77875541 237.15886711 228.25 240.3125 C227.48487091 240.42974426 226.71974182 240.54698853 225.931427 240.66778564 C217.03938621 242.03216321 208.1615791 243.46584554 199.28990173 244.95684814 C193.64094315 245.90259454 187.98550377 246.77261001 182.3125 247.5625 C181.44165771 247.68689453 180.57081543 247.81128906 179.67358398 247.93945312 C175.63562262 248.5121189 171.59821532 249.05798115 167.546875 249.52734375 C166.86842529 249.60847412 166.18997559 249.68960449 165.4909668 249.77319336 C163.70470273 249.98327556 161.91685014 250.17972968 160.12890625 250.375 C156.66672026 251.06657273 154.12840167 252.38534108 151 254 C145.57136411 255.8095453 140.14362634 256.70021877 134.5 257.5 C133.63012451 257.62745605 132.76024902 257.75491211 131.86401367 257.88623047 C127.71145244 258.48961683 123.55620495 259.06463106 119.39453125 259.6015625 C118.35425781 259.73594727 118.35425781 259.73594727 117.29296875 259.87304688 C115.42128817 260.11116008 113.54855954 260.34099271 111.67578125 260.5703125 C109.08666313 260.71798733 109.08666313 260.71798733 108 262 C106.44731382 262.26298222 104.88475391 262.46811248 103.3203125 262.6484375 C102.33796631 262.76517822 101.35562012 262.88191895 100.34350586 263.00219727 C99.28139893 263.12522217 98.21929199 263.24824707 97.125 263.375 C88.59410536 264.39835251 80.10815391 265.5521158 71.62939453 266.94042969 C65.40348738 267.95542082 59.1661877 268.79462457 52.90625 269.5703125 C49.94313518 269.92224763 49.94313518 269.92224763 47 271 C44.92597464 271.31003851 42.84672575 271.5854387 40.765625 271.84375 C31.09334264 273.08260598 21.45847295 274.56007895 11.81933594 276.03173828 C8.74186912 276.50124046 5.66392863 276.96754266 2.5859375 277.43359375 C0.59372084 277.73678761 -1.39846766 278.04016662 -3.390625 278.34375 C-4.29298889 278.48026978 -5.19535278 278.61678955 -6.12506104 278.75744629 C-11.64455619 279.60298923 -17.13786855 280.54926062 -22.62722778 281.57266235 C-25.61602023 282.1109456 -28.61062877 282.50848836 -31.625 282.875 C-39.72224598 283.91310846 -47.7678718 285.23117571 -55.81689453 286.59130859 C-61.98129805 287.6080871 -68.08515876 288.28827711 -74.31420898 288.75610352 C-77.67508246 289.06130419 -80.89776526 289.69316377 -84.1875 290.4375 C-90.31045329 291.73081768 -96.36358399 292.57133747 -102.58374023 293.22583008 C-107.54098322 293.76874205 -112.36781597 294.61873483 -117.25 295.625 C-124.12001215 297.00796846 -131.0012189 297.8177635 -138 297 C-138.99 296.34 -139.98 295.68 -141 295 C-125.0406347 289.36880932 -108.69100491 285.08396601 -92.3671875 280.65625 C-91.6318277 280.45654602 -90.8964679 280.25684204 -90.13882446 280.05108643 C-86.51236038 279.06631964 -82.88520816 278.0842992 -79.25634766 277.10839844 C-75.49769641 276.09536978 -71.74867371 275.04937217 -68 274 C-67.04480469 273.75056641 -66.08960938 273.50113281 -65.10546875 273.24414062 C-60.59306115 272.00858654 -60.59306115 272.00858654 -57.49609375 268.703125 C-56.75379002 264.65844642 -56.17264169 260.62685619 -55.66015625 256.546875 C-54.9934055 252.96456922 -53.94539389 249.74864093 -52.75561523 246.31640625 C-51.55716546 242.64245101 -50.76962168 238.90837011 -50 235.125 C-49.74355713 233.89027954 -49.74355713 233.89027954 -49.48193359 232.63061523 C-48.36393005 227.12808889 -47.44563113 221.61610156 -46.625 216.0625 C-44.88433387 204.29569765 -42.22356685 192.71973306 -39.67138672 181.10791016 C-38.89716537 177.52396916 -38.1768255 173.93137097 -37.46704102 170.33422852 C-36.69232985 166.46229256 -35.85093268 162.60578869 -35 158.75 C-34.835 157.986875 -34.67 157.22375 -34.5 156.4375 C-33.79936201 153.26273409 -33.07944938 150.22331719 -31.98828125 147.15625 C-30.51264242 142.44353785 -29.9233281 137.6252444 -29.1875 132.75 C-28.02447815 125.36736366 -26.67863642 118.21336716 -24.5 111.0625 C-21.96151508 102.72494854 -20.62698241 94.30078495 -19.43164062 85.67602539 C-18.68065906 80.44877646 -17.70865833 75.85785591 -15.70019531 70.97998047 C-14.34667295 67.15255147 -13.95839686 63.13495178 -13.4375 59.125 C-13.19191727 57.36172569 -12.94454083 55.59870022 -12.6953125 53.8359375 C-12.57833008 53.0015918 -12.46134766 52.16724609 -12.34082031 51.30761719 C-11.72918056 47.16634288 -10.88612755 43.08981945 -10 39 C-9.34 39 -8.68 39 -8 39 C-7.89042969 38.04480469 -7.78085938 37.08960938 -7.66796875 36.10546875 C-6.80468434 29.06584062 -5.74449832 22.39239584 -3.7265625 15.57421875 C-2.75066036 12.11658699 -2.08308724 8.62440121 -1.4296875 5.09375 C-1 3 -1 3 0 0 Z " fill="#E5E5E5" transform="translate(217,123)"/>
<path d="M0 0 C-0.33 0.99 -0.66 1.98 -1 3 C-14.89423842 5.58053637 -28.80672515 7.73659616 -42.82666016 9.51660156 C-50.40275773 10.48605973 -57.94108029 11.60524586 -65.48124695 12.81628418 C-71.54307824 13.78420577 -77.61289919 14.67848537 -83.69140625 15.53515625 C-84.58473663 15.66118729 -85.47806702 15.78721832 -86.39846802 15.91706848 C-90.04698215 16.43049542 -93.69580514 16.9416631 -97.3449707 17.45043945 C-100.06497627 17.83032582 -102.78445945 18.21379321 -105.50390625 18.59765625 C-106.31138809 18.70916519 -107.11886993 18.82067413 -107.95082092 18.93556213 C-112.91025427 19.63790509 -117.79994788 20.53704368 -122.70631409 21.54368591 C-125.61911343 22.12316864 -128.53850711 22.56459985 -131.48046875 22.96875 C-132.67075684 23.13375 -133.86104492 23.29875 -135.08740234 23.46875 C-136.37855957 23.6440625 -137.6697168 23.819375 -139 24 C-140.44874545 24.197807 -141.89747536 24.3957278 -143.34619141 24.59375 C-144.87272053 24.80208937 -146.39925049 25.0104226 -147.92578125 25.21875 C-149.07516678 25.37573364 -149.07516678 25.37573364 -150.24777222 25.53588867 C-151.02001129 25.6413501 -151.79225037 25.74681152 -152.58789062 25.85546875 C-153.36495361 25.96165527 -154.1420166 26.0678418 -154.94262695 26.17724609 C-156.53133158 26.39361238 -158.12020144 26.6087686 -159.70922852 26.82275391 C-167.88737538 27.9254442 -175.96261431 29.09380278 -184 31 C-186.18229197 31.34700756 -188.37022218 31.66049739 -190.5625 31.9375 C-192.48255859 32.185 -192.48255859 32.185 -194.44140625 32.4375 C-197.88521341 32.86710035 -201.33107583 33.27815377 -204.77734375 33.6875 C-214.58109887 34.86273807 -224.23533665 36.12915886 -233.89453125 38.1875 C-248.52749311 41.19371235 -263.45590497 42.97332856 -278.25485229 44.97952271 C-280.21190109 45.24483502 -282.16857701 45.51289328 -284.12524414 45.78100586 C-285.32656982 45.94093018 -286.52789551 46.10085449 -287.765625 46.265625 C-289.35552246 46.47880371 -289.35552246 46.47880371 -290.97753906 46.69628906 C-294.00715658 47.00071913 -296.95736263 47.05349942 -300 47 C-298.57837729 44.15675457 -296.96756793 43.99936293 -294 43 C-292.19795844 42.62418302 -290.38334773 42.30553698 -288.5625 42.03515625 C-287.51505615 41.8767627 -286.4676123 41.71836914 -285.38842773 41.55517578 C-284.27024658 41.39259277 -283.15206543 41.23000977 -282 41.0625 C-280.82574463 40.88702637 -279.65148926 40.71155273 -278.44165039 40.53076172 C-274.9621351 40.01312443 -271.48144997 39.50444549 -268 39 C-266.70811768 38.81268311 -266.70811768 38.81268311 -265.39013672 38.62158203 C-261.35604786 38.03949047 -257.32068812 37.46651955 -253.28515625 36.89453125 C-228.9945662 33.44414031 -204.7335565 29.83128003 -180.5 26 C-159.0667667 22.6119598 -137.61433105 19.38915269 -116.13513184 16.30670166 C-112.92575129 15.84568922 -109.71682279 15.38155039 -106.5078125 14.91796875 C-96.70756312 13.50708625 -86.90471271 12.11949566 -77.09375 10.78515625 C-62.99741602 8.8637038 -48.93507489 6.92223946 -34.93286133 4.38769531 C-28.26595761 3.18978912 -21.58566621 2.17137547 -14.875 1.25 C-13.95541504 1.12222168 -13.03583008 0.99444336 -12.08837891 0.86279297 C-8.03418503 0.32065796 -4.10133581 -0.17017991 0 0 Z " fill="#6F6F6E" transform="translate(668,330)"/>
<path d="M0 0 C0 0.66 0 1.32 0 2 C-7.89783821 3.78460767 -15.85627168 4.78616665 -23.88476562 5.74560547 C-27.40440865 6.1689051 -30.9215046 6.60997561 -34.4375 7.0625 C-35.67371094 7.21847656 -36.90992188 7.37445313 -38.18359375 7.53515625 C-40.89614885 7.70197587 -40.89614885 7.70197587 -42 9 C-43.55268618 9.26298222 -45.11524609 9.46811248 -46.6796875 9.6484375 C-47.66203369 9.76517822 -48.64437988 9.88191895 -49.65649414 10.00219727 C-50.71860107 10.12522217 -51.78070801 10.24824707 -52.875 10.375 C-61.40589464 11.39835251 -69.89184609 12.5521158 -78.37060547 13.94042969 C-84.59651262 14.95542082 -90.8338123 15.79462457 -97.09375 16.5703125 C-100.05686482 16.92224763 -100.05686482 16.92224763 -103 18 C-105.07402536 18.31003851 -107.15327425 18.5854387 -109.234375 18.84375 C-118.90665736 20.08260598 -128.54152705 21.56007895 -138.18066406 23.03173828 C-141.25813088 23.50124046 -144.33607137 23.96754266 -147.4140625 24.43359375 C-149.40627916 24.73678761 -151.39846766 25.04016662 -153.390625 25.34375 C-154.74417084 25.54852966 -154.74417084 25.54852966 -156.12506104 25.75744629 C-161.64455619 26.60298923 -167.13786855 27.54926062 -172.62722778 28.57266235 C-175.61602023 29.1109456 -178.61062877 29.50848836 -181.625 29.875 C-189.72224598 30.91310846 -197.7678718 32.23117571 -205.81689453 33.59130859 C-211.98129805 34.6080871 -218.08515876 35.28827711 -224.31420898 35.75610352 C-227.67508246 36.06130419 -230.89776526 36.69316377 -234.1875 37.4375 C-240.31045329 38.73081768 -246.36358399 39.57133747 -252.58374023 40.22583008 C-257.54082994 40.76872527 -262.36818965 41.61726792 -267.25 42.625 C-274.25019602 44.01248905 -280.883006 44.32903911 -288 44 C-284.47172981 41.64781987 -281.34561469 41.23336569 -277.25 40.625 C-271.18067778 39.68714225 -265.1280913 38.68079894 -259.08256531 37.60028076 C-247.47749758 35.53134516 -235.84983321 33.77345786 -224.17337036 32.16290283 C-205.10294695 29.52573816 -186.07308609 26.66260031 -167.0625 23.625 C-165.95989838 23.44996948 -164.85729675 23.27493896 -163.72128296 23.09460449 C-160.61691881 22.60090639 -157.51339416 22.1022855 -154.41015625 21.6015625 C-153.48234344 21.45395477 -152.55453064 21.30634705 -151.59860229 21.15426636 C-150.75403473 21.01650787 -149.90946716 20.87874939 -149.03930664 20.73681641 C-148.30329727 20.61803131 -147.5672879 20.49924622 -146.80897522 20.37686157 C-144.91061103 20.06172025 -144.91061103 20.06172025 -143 19 C-141.67825078 18.81573759 -140.34957153 18.67970398 -139.01953125 18.5703125 C-138.19549805 18.49868896 -137.37146484 18.42706543 -136.52246094 18.35327148 C-135.62817383 18.27794189 -134.73388672 18.2026123 -133.8125 18.125 C-125.60254482 17.38852296 -117.4252878 16.49200204 -109.25 15.4375 C-107.74143433 15.24728271 -107.74143433 15.24728271 -106.20239258 15.05322266 C-105.27450928 14.93124512 -104.34662598 14.80926758 -103.390625 14.68359375 C-102.1536084 14.52201782 -102.1536084 14.52201782 -100.89160156 14.35717773 C-98.99525721 14.18313353 -98.99525721 14.18313353 -98 13 C-95.33468735 12.53482751 -92.67825896 12.12782817 -90 11.75 C-88.16008166 11.48228297 -86.32024361 11.21401378 -84.48046875 10.9453125 C-83.45228027 10.79610352 -82.4240918 10.64689453 -81.36474609 10.49316406 C-75.70679941 9.66389021 -70.05386183 8.80159918 -64.40048218 7.94186401 C-62.29690828 7.62263386 -60.19305285 7.30532296 -58.08911133 6.98852539 C-51.46117849 5.98929373 -44.83549188 4.97950344 -38.21607971 3.92510986 C-35.25255271 3.45373035 -32.28799105 2.98905192 -29.32333374 2.52484131 C-27.92259603 2.30360373 -26.52236237 2.07914565 -25.12271118 1.85113525 C-16.67316265 0.47573773 -8.56400136 -0.31496327 0 0 Z " fill="#8D8D8C" transform="translate(367,376)"/>
<path d="M0 0 C-2.93498907 1.95665938 -4.57109706 2.49654396 -7.9375 3.25 C-16.14004539 5.21703726 -24.17269889 7.69891762 -32.23779297 10.15869141 C-35.03344366 11.01018622 -37.83094687 11.85534378 -40.62890625 12.69921875 C-54.79784356 16.98068886 -68.95700006 21.31900002 -83 26 C-83.12117187 26.98742187 -83.24234375 27.97484375 -83.3671875 28.9921875 C-83.53476562 30.27351563 -83.70234375 31.55484375 -83.875 32.875 C-84.03742187 34.15117187 -84.19984375 35.42734375 -84.3671875 36.7421875 C-85 40 -85 40 -87 42 C-86.01 33.09 -86.01 33.09 -85 24 C-83.68 24 -82.36 24 -81 24 C-81 23.34 -81 22.68 -81 22 C-80.01 21.67 -79.02 21.34 -78 21 C-77.34 20.34 -76.68 19.68 -76 19 C-75.01 18.67 -74.02 18.34 -73 18 C-74.64507218 17.80593522 -76.29109594 17.61992065 -77.9375 17.4375 C-78.85402344 17.33308594 -79.77054688 17.22867187 -80.71484375 17.12109375 C-81.46894531 17.08113281 -82.22304688 17.04117187 -83 17 C-83.33 17.33 -83.66 17.66 -84 18 C-85.66617115 18.04063832 -87.33388095 18.042721 -89 18 C-87.84826645 15.53199953 -86.95216435 13.95216435 -85 12 C-83.1746521 11.5206604 -83.1746521 11.5206604 -80.93115234 11.19384766 C-80.08703293 11.0666333 -79.24291351 10.93941895 -78.37321472 10.80834961 C-76.9935125 10.61317749 -76.9935125 10.61317749 -75.5859375 10.4140625 C-74.15457207 10.20124634 -74.15457207 10.20124634 -72.69429016 9.98413086 C-69.58889442 9.52373894 -66.48199569 9.07445481 -63.375 8.625 C-59.15966385 8.00331009 -54.94511746 7.37633072 -50.73046875 6.75 C-49.7008754 6.59786041 -48.67128204 6.44572083 -47.61048889 6.28897095 C-39.05116635 5.02062631 -30.51601721 3.64163867 -21.99169922 2.15478516 C-14.68184857 0.89258019 -7.43704965 -0.19069358 0 0 Z " fill="#D3D3D2" transform="translate(673,350)"/>
<path d="M0 0 C0.99 0 1.98 0 3 0 C3 1.98 3 3.96 3 6 C2.34 6 1.68 6 1 6 C1 6.66 1 7.32 1 8 C-56.42 8 -113.84 8 -173 8 C-173 7.67 -173 7.34 -173 7 C-142.31 7 -111.62 7 -80 7 C-80 6.01 -80 5.02 -80 4 C-76.65747276 3.92572162 -74.1964086 3.93453047 -71 5 C-70.05640625 4.52240234 -70.05640625 4.52240234 -69.09375 4.03515625 C-66.54294381 2.77403005 -65.27362862 2.97681168 -62.5 3.4375 C-59.28210093 3.96095961 -57.13054698 3.87886257 -54 3 C-53.01 3 -52.02 3 -51 3 C-49.700625 2.835 -48.40125 2.67 -47.0625 2.5 C-32.38068182 0.80965909 -32.38068182 0.80965909 -28 3 C-27.071875 2.835 -26.14375 2.67 -25.1875 2.5 C-20.41753 1.69494177 -15.76878751 2.34940858 -10.98828125 2.84375 C-8.28633868 2.98502804 -6.54965552 2.75545349 -4 2 C-3.01 2 -2.02 2 -1 2 C-0.67 1.34 -0.34 0.68 0 0 Z " fill="#242423" transform="translate(473,318)"/>
<path d="M0 0 C0.33 0 0.66 0 1 0 C1.02685095 2.47923801 1.04676547 4.9581884 1.0625 7.4375 C1.07087891 8.14455078 1.07925781 8.85160156 1.08789062 9.58007812 C1.09653588 11.38693559 1.05220011 13.19387603 1 15 C0.67 15.33 0.34 15.66 0 16 C-0.18703654 17.66254698 -0.32390345 19.33082626 -0.4375 21 C-0.96038995 27.30736006 -2.18610625 33.17850168 -3.9375 39.25 C-6.64367887 48.80121955 -8.52195058 58.50794735 -10.25390625 68.2734375 C-11 72 -11 72 -12.02734375 75.52734375 C-13.34585092 80.234785 -13.84974537 84.94924087 -14.4375 89.79296875 C-15 93 -15 93 -15.95898438 94.80419922 C-17.29216164 97.61625276 -17.70845117 100.27076707 -18.21875 103.33984375 C-18.42886719 104.56767578 -18.63898438 105.79550781 -18.85546875 107.06054688 C-19.06816406 108.33994141 -19.28085937 109.61933594 -19.5 110.9375 C-19.92201291 113.46829864 -20.34891024 115.99828879 -20.78125 118.52734375 C-20.96751953 119.64874756 -21.15378906 120.77015137 -21.34570312 121.92553711 C-21.96080683 124.81583599 -22.87695247 127.27809042 -24 130 C-24.3813074 132.32597511 -24.72460254 134.65912158 -25 137 C-25.66 137 -26.32 137 -27 137 C-27.19020891 131.76925495 -26.7486092 127.34981861 -25.5 122.27734375 C-25.00989689 120.04507726 -24.75716761 117.90017771 -24.5625 115.625 C-24.23213938 112.25763997 -23.56277554 109.18813126 -22.625 105.9375 C-20.91735291 100.01488011 -19.82549805 94.0539269 -18.74609375 87.9921875 C-17.59251193 81.66392254 -16.11491506 75.4207711 -14.5625 69.1796875 C-12.02459775 58.97014286 -9.658528 48.9812345 -8.484375 38.51953125 C-7.63362534 32.33787444 -6.04248979 26.33160479 -4.54980469 20.27929688 C-3.56050359 16.17800244 -2.65774248 12.05747433 -1.75 7.9375 C-1.57484863 7.14496826 -1.39969727 6.35243652 -1.21923828 5.53588867 C-0.81186341 3.69080461 -0.40577996 1.84543548 0 0 Z " fill="#565753" transform="translate(325,188)"/>
<path d="M0 0 C0.33 0 0.66 0 1 0 C1.125 7.75 1.125 7.75 0 10 C-0.15764583 11.95597603 -0.27630327 13.91516496 -0.375 15.875 C-1.5430622 32.5430622 -1.5430622 32.5430622 -6 37 C-6.30495068 39.57205877 -6.51446799 42.10582992 -6.6875 44.6875 C-7.48533781 54.17977292 -9.44039996 63.35998171 -11.5625 72.625 C-11.7222934 73.3286972 -11.88208679 74.03239441 -12.04672241 74.75741577 C-14.79213579 86.79213579 -14.79213579 86.79213579 -16 88 C-16.13547465 89.91470844 -16.23220869 91.83218481 -16.3125 93.75 C-16.78827851 100.91046665 -18.62747304 107.25760942 -21 114 C-21.66 114 -22.32 114 -23 114 C-23.33 114.99 -23.66 115.98 -24 117 C-23.50524399 107.71561356 -21.60799383 98.84650495 -19.5625 89.8125 C-19.24614154 88.38880579 -18.93038298 86.96497814 -18.61523438 85.54101562 C-16.19903058 74.67150793 -16.19903058 74.67150793 -14.96484375 70.01171875 C-13.83308324 65.59671442 -13.0671455 61.10886725 -12.24375916 56.62876892 C-10.79601654 48.79822086 -9.16610306 41.00780715 -7.52050781 33.21679688 C-6.99765785 30.73890007 -6.47915769 28.2601187 -5.9609375 25.78125 C-4.14576406 17.14045637 -2.24075909 8.54289402 0 0 Z " fill="#565653" transform="translate(270,450)"/>
<path d="M0 0 C38.28 0 76.56 0 116 0 C115.67 0.66 115.34 1.32 115 2 C105.41680542 2.17493021 95.83347097 2.34101082 86.25 2.5 C85.5343689 2.51187725 84.81873779 2.5237545 84.0814209 2.53599167 C55.71903797 3.00346785 27.36645243 3.11979076 -1 3 C-0.67 2.01 -0.34 1.02 0 0 Z " fill="#F5F5F4" transform="translate(522,125)"/>
<path d="M0 0 C-0.99 0 -1.98 0 -3 0 C-3.33 0.99 -3.66 1.98 -4 3 C-4.69222656 3.03738281 -5.38445312 3.07476562 -6.09765625 3.11328125 C-11.91030989 3.50385481 -17.48581507 4.22879163 -23.1875 5.4375 C-29.31045329 6.73081768 -35.36358399 7.57133747 -41.58374023 8.22583008 C-46.54082994 8.76872527 -51.36818965 9.61726792 -56.25 10.625 C-63.25019602 12.01248905 -69.883006 12.32903911 -77 12 C-73.47106372 9.64737581 -70.34561741 9.23462763 -66.25 8.625 C-64.60528596 8.3670482 -62.96076292 8.10787645 -61.31640625 7.84765625 C-60.4464502 7.71117676 -59.57649414 7.57469727 -58.68017578 7.43408203 C-55.10606306 6.85521772 -51.54550563 6.20875272 -47.98266602 5.56469727 C-37.78861818 3.73316994 -27.56604255 2.14319879 -17.3125 0.6875 C-15.42277466 0.41208374 -15.42277466 0.41208374 -13.49487305 0.13110352 C-12.31707275 -0.03204346 -11.13927246 -0.19519043 -9.92578125 -0.36328125 C-8.87817627 -0.51063721 -7.83057129 -0.65799316 -6.7512207 -0.80981445 C-4.18142329 -0.98745863 -2.42461143 -0.80311848 0 0 Z " fill="#838383" transform="translate(156,408)"/>
<path d="M0 0 C1.12719452 0.01441132 1.12719452 0.01441132 2.27716064 0.02911377 C4.76079714 0.06209255 7.24425713 0.10242912 9.7277832 0.14282227 C11.4498482 0.16712448 13.17191973 0.19096799 14.89399719 0.21437073 C19.42651812 0.27720157 23.95892345 0.34627109 28.49133301 0.41662598 C33.11632014 0.48731842 37.74138924 0.55212994 42.36645508 0.61743164 C51.44141495 0.74643111 60.51626358 0.88201933 69.59106445 1.02172852 C69.26106445 1.68172852 68.93106445 2.34172852 68.59106445 3.02172852 C61.27841616 3.15444329 53.96573156 3.28494593 46.65299797 3.41287994 C43.2547301 3.47239567 39.85647724 3.53257923 36.45825195 3.59448242 C20.16727805 3.88969608 3.8848406 4.09857588 -12.40893555 4.02172852 C-9.15976272 -0.85203073 -5.35502027 -0.09774974 0 0 Z " fill="#E9EAE8" transform="translate(286.408935546875,438.978271484375)"/>
<path d="M0 0 C1.0415625 0.00902344 2.083125 0.01804687 3.15625 0.02734375 C4.31640625 0.04474609 4.31640625 0.04474609 5.5 0.0625 C5.5 0.7225 5.5 1.3825 5.5 2.0625 C-2.39783821 3.84710767 -10.35627168 4.84866665 -18.38476562 5.80810547 C-21.90440865 6.2314051 -25.4215046 6.67247561 -28.9375 7.125 C-30.17371094 7.28097656 -31.40992188 7.43695313 -32.68359375 7.59765625 C-35.39614885 7.76447587 -35.39614885 7.76447587 -36.5 9.0625 C-38.91831079 9.46653485 -41.31936411 9.81602086 -43.75 10.125 C-44.41902344 10.21587891 -45.08804687 10.30675781 -45.77734375 10.40039062 C-49.3749612 10.87041334 -52.87207529 11.16796293 -56.5 11.0625 C-48.52202044 5.74384696 -38.71859421 4.90620633 -29.4375 3.4375 C-28.10080578 3.21939668 -26.7642163 3.00065048 -25.42773438 2.78125 C-7.74295495 -0.08798812 -7.74295495 -0.08798812 0 0 Z " fill="#696967" transform="translate(361.5,375.9375)"/>
<path d="M0 0 C0.33 0 0.66 0 1 0 C1.40042031 8.90631837 0.27478168 16.84306221 -1.75 25.5 C-2.3006366 27.95286546 -2.85010695 30.405993 -3.3984375 32.859375 C-3.80594238 34.66051758 -3.80594238 34.66051758 -4.22167969 36.49804688 C-5.34835229 41.56736675 -6.37211407 46.65496458 -7.375 51.75 C-7.54225586 52.59498047 -7.70951172 53.43996094 -7.88183594 54.31054688 C-8.2563888 56.20667038 -8.62852099 58.10327189 -9 60 C-9.99 60 -10.98 60 -12 60 C-12.33 61.32 -12.66 62.64 -13 64 C-11.99603432 52.55479119 -9.42613067 41.4615583 -6.55810547 30.36010742 C-4.5160808 22.32170755 -2.97600723 14.17954099 -1.41723633 6.03613281 C-1.00143789 4.00701698 -0.51714464 2.00545027 0 0 Z " fill="#494A45" transform="translate(339,124)"/>
<path d="M0 0 C0.33 0 0.66 0 1 0 C0.88512252 1.58409994 0.75765492 3.16728963 0.625 4.75 C0.55539063 5.63171875 0.48578125 6.5134375 0.4140625 7.421875 C0 10 0 10 -2 14 C-42.26 14 -82.52 14 -124 14 C-124 11.69 -124 9.38 -124 7 C-123.34 8.32 -122.68 9.64 -122 11 C-121.34 10.67 -120.68 10.34 -120 10 C-120 10.99 -120 11.98 -120 13 C-104.90990148 12.9395283 -89.81996179 12.86207325 -74.73005867 12.76428509 C-67.72386298 12.71928025 -60.71771866 12.6798766 -53.71142578 12.65356445 C-46.95510898 12.62817548 -40.19905079 12.58730286 -33.44286728 12.53681374 C-30.86000264 12.52007622 -28.27709854 12.50860504 -25.69418716 12.50238609 C-22.08770883 12.49281976 -18.48182257 12.46485011 -14.87548828 12.43237305 C-13.79799316 12.43380814 -12.72049805 12.43524323 -11.61035156 12.4367218 C-10.63156036 12.42418365 -9.65276917 12.41164551 -8.64431763 12.39872742 C-7.79073732 12.39411845 -6.93715702 12.38950949 -6.05771065 12.38476086 C-5.03914388 12.19430423 -5.03914388 12.19430423 -4 12 C-2.09681116 9.14521674 -1.5380901 7.58058692 -0.875 4.3125 C-0.70742187 3.50425781 -0.53984375 2.69601562 -0.3671875 1.86328125 C-0.18542969 0.94095703 -0.18542969 0.94095703 0 0 Z " fill="#B5B6B2" transform="translate(229,636)"/>
<path d="M0 0 C0.33 0 0.66 0 1 0 C1.33024382 8.60082377 0.44236297 16.41485371 -1.375 24.8125 C-1.59671875 25.89208984 -1.8184375 26.97167969 -2.046875 28.08398438 C-2.9443171 32.38906694 -3.85466908 36.66953561 -5.09375 40.890625 C-5.9705337 43.89890009 -6.59166598 46.85178177 -7.125 49.9375 C-7.29257812 50.89527344 -7.46015625 51.85304688 -7.6328125 52.83984375 C-7.75398438 53.55269531 -7.87515625 54.26554687 -8 55 C-8.66 55 -9.32 55 -10 55 C-10.19020891 49.76925495 -9.7486092 45.34981861 -8.5 40.27734375 C-8.00989689 38.04507726 -7.75716761 35.90017771 -7.5625 33.625 C-7.13843193 29.30248158 -6.03438324 25.35027355 -4.828125 21.1875 C-3.63752518 16.6048139 -2.81748153 11.96857556 -2.00244141 7.30639648 C-1.09629058 2.19258116 -1.09629058 2.19258116 0 0 Z " fill="#4E4E4B" transform="translate(308,270)"/>
<path d="M0 0 C0.66 0.66 1.32 1.32 2 2 C0.02 2.99 0.02 2.99 -2 4 C-2 4.99 -2 5.98 -2 7 C-11.24 7 -20.48 7 -30 7 C-28 4 -28 4 -26.06396484 3.29223633 C-25.28746582 3.14036865 -24.5109668 2.98850098 -23.7109375 2.83203125 C-22.85113281 2.66123047 -21.99132812 2.49042969 -21.10546875 2.31445312 C-20.20441406 2.14880859 -19.30335938 1.98316406 -18.375 1.8125 C-17.05822266 1.54663086 -17.05822266 1.54663086 -15.71484375 1.27539062 C-10.39606168 0.25193999 -5.41590442 -0.37120244 0 0 Z " fill="#EAEAE9" transform="translate(548,369)"/>
<path d="M0 0 C20.13 0 40.26 0 61 0 C60.67 0.66 60.34 1.32 60 2 C49.05751159 3.9705081 37.31661822 3.02614832 26.25488281 2.75805664 C23.21431835 2.68666217 20.17374956 2.63293645 17.1328125 2.58007812 C15.19789311 2.53751629 13.2629958 2.49393511 11.328125 2.44921875 C10.41992004 2.43453049 9.51171509 2.41984222 8.57598877 2.40470886 C7.74041443 2.38161148 6.90484009 2.3585141 6.04394531 2.3347168 C5.30895813 2.31837692 4.57397095 2.30203705 3.81671143 2.28520203 C2 2 2 2 0 0 Z " fill="#F2F2F0" transform="translate(300,326)"/>
<path d="M0 0 C0.33 0 0.66 0 1 0 C1.55289238 10.81211761 0.01102438 21.14423508 -3.03125 31.515625 C-4.04337607 35.15601391 -4.62589454 38.69420904 -5.125 42.4375 C-5.29257812 43.67371094 -5.46015625 44.90992188 -5.6328125 46.18359375 C-5.75398438 47.11300781 -5.87515625 48.04242188 -6 49 C-6.33 49 -6.66 49 -7 49 C-7.98246149 34.75430835 -5.3026313 22.28296191 -1.64501953 8.54882812 C-0.92876606 5.71851537 -0.39403026 2.89288037 0 0 Z " fill="#4B4B47" transform="translate(316,232)"/>
<path d="M0 0 C0.33 0 0.66 0 1 0 C0.82197253 10.89957859 0.46411297 21.63289134 -1.875 32.3125 C-2.03645508 33.0761084 -2.19791016 33.8397168 -2.36425781 34.62646484 C-2.8671875 36.73828125 -2.8671875 36.73828125 -4 40 C-5.485 40.495 -5.485 40.495 -7 41 C-7 42.65 -7 44.3 -7 46 C-7.66 46 -8.32 46 -9 46 C-7.953774 38.81181199 -6.80221622 31.64604602 -5.5 24.5 C-5.38164795 23.83033203 -5.2632959 23.16066406 -5.14135742 22.47070312 C-4.45135964 18.75453882 -3.40592213 15.49231057 -2 12 C-1.57426894 9.90550831 -1.19999506 7.79996789 -0.875 5.6875 C-0.70742187 4.61886719 -0.53984375 3.55023437 -0.3671875 2.44921875 C-0.24601563 1.64097656 -0.12484375 0.83273437 0 0 Z " fill="#3B3C37" transform="translate(237,603)"/>
<path d="M0 0 C0.99 0 1.98 0 3 0 C3 1.98 3 3.96 3 6 C2.34 6 1.68 6 1 6 C1 6.66 1 7.32 1 8 C-4.94 8 -10.88 8 -17 8 C-17 7.34 -17 6.68 -17 6 C-20.3 6 -23.6 6 -27 6 C-27 5.67 -27 5.34 -27 5 C-26.44538086 4.94465088 -25.89076172 4.88930176 -25.31933594 4.83227539 C-22.7959083 4.57871893 -20.27296117 4.32065495 -17.75 4.0625 C-16.87730469 3.97548828 -16.00460937 3.88847656 -15.10546875 3.79882812 C-13.83896484 3.66831055 -13.83896484 3.66831055 -12.546875 3.53515625 C-11.77182617 3.456604 -10.99677734 3.37805176 -10.19824219 3.29711914 C-8.00096032 3.04286047 -8.00096032 3.04286047 -5.90332031 2.46655273 C-4 2 -4 2 -1 2 C-0.67 1.34 -0.34 0.68 0 0 Z " fill="#1D1D1D" transform="translate(473,318)"/>
<path d="M0 0 C-0.33 0.99 -0.66 1.98 -1 3 C-0.01 2.67 0.98 2.34 2 2 C3.56118428 1.93259135 5.1250252 1.91485544 6.6875 1.9375 C7.89986328 1.95103516 7.89986328 1.95103516 9.13671875 1.96484375 C10.05904297 1.98224609 10.05904297 1.98224609 11 2 C11.495 2.99 11.495 2.99 12 4 C4.22640558 4.92229086 -3.39084624 5.06101429 -11.203125 4.9375 C-14.93372729 4.99890909 -18.32915939 5.39136321 -22 6 C-22 5.34 -22 4.68 -22 4 C-23.32 3.67 -24.64 3.34 -26 3 C-17.26891394 0.32721855 -9.1056973 -0.13456696 0 0 Z " fill="#EBEBE9" transform="translate(213,420)"/>
<path d="M0 0 C0.91354248 -0.00467285 1.82708496 -0.0093457 2.76831055 -0.01416016 C8.83799681 0.00004561 14.78566635 0.41021411 20.8125 1.125 C20.4825 1.785 20.1525 2.445 19.8125 3.125 C4.9625 3.125 -9.8875 3.125 -25.1875 3.125 C-24.8575 2.465 -24.5275 1.805 -24.1875 1.125 C-16.35164621 -0.37157748 -7.95204031 0.02816306 0 0 Z " fill="#DBDCD9" transform="translate(416.1875,440.875)"/>
<path d="M0 0 C0 0.33 0 0.66 0 1 C-5.87080397 1.85992298 -11.74238506 2.7142517 -17.61474609 3.56347656 C-19.61106167 3.85296661 -21.60715895 4.14396624 -23.60302734 4.43652344 C-26.47697363 4.85752005 -29.35166915 5.27302641 -32.2265625 5.6875 C-33.11429352 5.81874268 -34.00202454 5.94998535 -34.91665649 6.08520508 C-39.31968764 6.71454871 -43.53751362 7.15321842 -48 7 C-47 5 -47 5 -44.87109375 3.94140625 C-31.01411103 -0.60217584 -14.38254748 -0.21502147 0 0 Z " fill="#6C6C6A" transform="translate(416,370)"/>
<path d="M0 0 C0.66 0 1.32 0 2 0 C1.60740557 5.59447061 0.61147364 10.60450444 -0.9375 16 C-2.75656576 22.35777325 -3.72455355 28.60695787 -4.31616211 35.18945312 C-4.86206694 40.98091225 -6.24431195 45.88229362 -9 51 C-9.35458476 44.38108439 -8.44658443 38.30413954 -7.06713867 31.84960938 C-6.16449244 27.49459608 -5.86152348 23.44278826 -6 19 C-5.01 18.67 -4.02 18.34 -3 18 C-3.04125 16.824375 -3.0825 15.64875 -3.125 14.4375 C-3.13414649 9.27888096 -1.61907501 4.85722504 0 0 Z " fill="#B8B9B6" transform="translate(568,469)"/>
<path d="M0 0 C-3.65728405 2.43818936 -6.93287895 2.6716692 -11.1875 3.125 C-11.93708984 3.21136719 -12.68667969 3.29773438 -13.45898438 3.38671875 C-15.30517412 3.59838382 -17.15249344 3.80015464 -19 4 C-19 4.66 -19 5.32 -19 6 C-27.60299662 7.66920887 -35.99754006 8.38737665 -44.75 8.625 C-45.9359375 8.66367187 -47.121875 8.70234375 -48.34375 8.7421875 C-51.22902375 8.83526085 -54.11431021 8.92108941 -57 9 C-57 8.67 -57 8.34 -57 8 C-55.85112305 7.82871582 -54.70224609 7.65743164 -53.51855469 7.48095703 C-49.20199439 6.83712935 -44.88563717 6.1919487 -40.56933594 5.54638672 C-38.71131702 5.26868143 -36.8532453 4.99132919 -34.99511719 4.71435547 C-32.30389194 4.31313405 -29.61283697 3.91079576 -26.921875 3.5078125 C-26.05067017 3.37755676 -25.17946533 3.24730103 -24.28186035 3.11309814 C-18.63463289 2.26295907 -13.00346524 1.34626819 -7.38378906 0.32763672 C-4.89358734 -0.01462575 -2.51042208 -0.05774307 0 0 Z " fill="#858584" transform="translate(452,362)"/>
<path d="M0 0 C0.33 0 0.66 0 1 0 C1.125 7.75 1.125 7.75 0 10 C-0.15764583 11.95597603 -0.27630327 13.91516496 -0.375 15.875 C-1.5430622 32.5430622 -1.5430622 32.5430622 -6 37 C-6.67292501 38.96690374 -6.67292501 38.96690374 -7.125 41.125 C-7.41375 42.40375 -7.7025 43.6825 -8 45 C-9.47846869 41.06420163 -8.54593066 37.94225755 -7.63671875 33.92578125 C-7.48467484 33.24251266 -7.33263092 32.55924408 -7.17597961 31.85527039 C-6.68820946 29.67236173 -6.18809258 27.49249996 -5.6875 25.3125 C-5.36180571 23.8654197 -5.03692758 22.41815545 -4.71289062 20.97070312 C-4.0924946 18.20543823 -3.46751753 15.44128895 -2.83740234 12.67822266 C-1.87603578 8.45549711 -0.93495138 4.22863797 0 0 Z " fill="#4B4C48" transform="translate(270,450)"/>
<path d="M0 0 C0 0.33 0 0.66 0 1 C-1.04414063 1.09796875 -2.08828125 1.1959375 -3.1640625 1.296875 C-13.06983886 2.28471497 -22.79202106 3.75443406 -32.56103516 5.67871094 C-37.11365458 6.55846826 -41.33520719 7.23169501 -46 7 C-46 6.34 -46 5.68 -46 5 C-43.95888458 4.51849058 -41.91708068 4.03989917 -39.875 3.5625 C-38.73804688 3.29566406 -37.60109375 3.02882813 -36.4296875 2.75390625 C-24.50117817 0.13180796 -12.18319772 -0.23230674 0 0 Z " fill="#838382" transform="translate(199,403)"/>
<path d="M0 0 C-0.33 0.99 -0.66 1.98 -1 3 C-9.76771414 4.71524707 -18.32813435 5.39250839 -27.25 5.625 C-28.48363281 5.66367187 -29.71726562 5.70234375 -30.98828125 5.7421875 C-33.99204937 5.8353276 -36.99582878 5.92114531 -40 6 C-40 5.67 -40 5.34 -40 5 C-35.26856974 4.28230685 -30.53631531 3.57041651 -25.80322266 2.86376953 C-24.19491318 2.62283035 -22.58683558 2.38033778 -20.97900391 2.13623047 C-18.66108217 1.78459528 -16.34236987 1.43864945 -14.0234375 1.09375 C-12.95432632 0.92969666 -12.95432632 0.92969666 -11.86361694 0.7623291 C-7.87295251 0.17507572 -4.03249352 -0.11032814 0 0 Z " fill="#7C7C7C" transform="translate(527,351)"/>
<path d="M0 0 C0 0.33 0 0.66 0 1 C-0.79583496 1.11069824 -1.59166992 1.22139648 -2.41162109 1.33544922 C-6.06651213 1.8455945 -9.72075252 2.36026584 -13.375 2.875 C-15.25251953 3.13603516 -15.25251953 3.13603516 -17.16796875 3.40234375 C-23.39662483 4.2828344 -29.55574285 5.26991553 -35.71240234 6.55810547 C-39.49250184 7.28830612 -43.29940547 7.71123889 -47.125 8.125 C-48.27355469 8.25455078 -48.27355469 8.25455078 -49.4453125 8.38671875 C-51.29644861 8.59497156 -53.14816463 8.79805972 -55 9 C-54.67 8.01 -54.34 7.02 -54 6 C-49.19896646 5.30344717 -44.3975248 4.60980001 -39.59570312 3.91870117 C-37.96635948 3.68379876 -36.33712486 3.44813873 -34.70800781 3.21166992 C-11.31480736 -0.18249689 -11.31480736 -0.18249689 0 0 Z " fill="#595958" transform="translate(581,345)"/>
<path d="M0 0 C1.44705476 2.89410952 0.57350873 4.65419831 -0.14453125 7.78515625 C-0.40943359 8.95626953 -0.67433594 10.12738281 -0.94726562 11.33398438 C-1.23279297 12.56439453 -1.51832031 13.79480469 -1.8125 15.0625 C-2.08642578 16.26583984 -2.36035156 17.46917969 -2.64257812 18.70898438 C-3.17786278 21.05935898 -3.71570982 23.40915175 -4.25634766 25.75830078 C-5.19142707 29.83446112 -6.09884338 33.91622195 -7 38 C-7.92214772 34.65605018 -7.95907496 32.1489629 -7.5625 28.6875 C-7.21678434 25.41414162 -6.93776504 22.22903807 -7 18.9375 C-7 16 -7 16 -6 14 C-5.960008 12.00039988 -5.95653201 9.99952758 -6 8 C-4.68 8 -3.36 8 -2 8 C-1.855625 6.865625 -1.71125 5.73125 -1.5625 4.5625 C-1 1 -1 1 0 0 Z " fill="#393A3A" transform="translate(216,124)"/>
<path d="M0 0 C1.33996754 3.73759491 0.6665074 6.48368226 -0.21484375 10.296875 C-0.48876953 11.50214844 -0.76269531 12.70742188 -1.04492188 13.94921875 C-1.33947266 15.20347656 -1.63402344 16.45773437 -1.9375 17.75 C-2.22818359 19.01972656 -2.51886719 20.28945313 -2.81835938 21.59765625 C-3.53753155 24.73371851 -4.26503425 27.86760828 -5 31 C-5.33 31 -5.66 31 -6 31 C-6.33 27.37 -6.66 23.74 -7 20 C-7.66 20 -8.32 20 -9 20 C-9 16.04 -9 12.08 -9 8 C-8.01 8.33 -7.02 8.66 -6 9 C-6 11.64 -6 14.28 -6 17 C-5.34 17.33 -4.68 17.66 -4 18 C-3.81824219 16.80503906 -3.81824219 16.80503906 -3.6328125 15.5859375 C-1.96836555 5.06151142 -1.96836555 5.06151142 0 0 Z " fill="#494949" transform="translate(169,344)"/>
<path d="M0 0 C0.33 0 0.66 0 1 0 C1.27572985 6.20745656 0.37393015 11.20666348 -1.4375 17.125 C-2.91163901 22.07183064 -4.28718238 26.87099044 -5 32 C-5.33 32 -5.66 32 -6 32 C-7.35434043 22.81132111 -6.07439156 15.68712693 -3 7 C-2.62875 5.845 -2.2575 4.69 -1.875 3.5 C-1 1 -1 1 0 0 Z " fill="#B1B1AF" transform="translate(545,580)"/>
<path d="M0 0 C1.47919922 0.06960938 1.47919922 0.06960938 2.98828125 0.140625 C3.98214844 0.17671875 4.97601563 0.2128125 6 0.25 C7.13888672 0.31960938 7.13888672 0.31960938 8.30078125 0.390625 C8.30078125 0.720625 8.30078125 1.050625 8.30078125 1.390625 C13.25078125 1.720625 18.20078125 2.050625 23.30078125 2.390625 C23.30078125 3.050625 23.30078125 3.710625 23.30078125 4.390625 C13.73078125 4.390625 4.16078125 4.390625 -5.69921875 4.390625 C-2.69921875 0.390625 -2.69921875 0.390625 0 0 Z " fill="#F2F2F1" transform="translate(150.69921875,427.609375)"/>
<path d="M0 0 C-0.33 1.32 -0.66 2.64 -1 4 C-9.58 4 -18.16 4 -27 4 C-19.90460108 -0.73026595 -8.33942827 -0.29261152 0 0 Z " fill="#E6E7E5" transform="translate(106,436)"/>
<path d="M0 0 C-0.66 0 -1.32 0 -2 0 C-2 0.66 -2 1.32 -2 2 C-13.80202199 4.86025474 -25.90062068 5.22639171 -38 5 C-38 4.67 -38 4.34 -38 4 C-33.23259964 3.25961404 -28.46377959 2.52951071 -23.69335938 1.80883789 C-22.07118451 1.56230232 -20.4494312 1.31297604 -18.828125 1.06079102 C-16.49584828 0.69851641 -14.16223326 0.34634808 -11.828125 -0.00390625 C-10.74352997 -0.17570152 -10.74352997 -0.17570152 -9.63702393 -0.35096741 C-6.18273973 -0.8595594 -3.32046639 -1.23578444 0 0 Z " fill="#8C8D8B" transform="translate(215,399)"/>
<path d="M0 0 C0 0.66 0 1.32 0 2 C-7.1331561 3.71979056 -13.80233992 4.25870025 -21.125 4.125 C-22.08148438 4.11597656 -23.03796875 4.10695313 -24.0234375 4.09765625 C-26.34923525 4.07439827 -28.67447294 4.04172213 -31 4 C-31 3.67 -31 3.34 -31 3 C-20.62718197 1.17716169 -10.57926542 -0.57014005 0 0 Z " fill="#8C8C8A" transform="translate(367,376)"/>
<path d="M0 0 C-0.33 0.99 -0.66 1.98 -1 3 C-4.74760669 3.70100082 -8.49836085 4.38343987 -12.25 5.0625 C-13.31347656 5.26166016 -14.37695312 5.46082031 -15.47265625 5.66601562 C-16.49746094 5.84970703 -17.52226563 6.03339844 -18.578125 6.22265625 C-19.52075195 6.39547119 -20.46337891 6.56828613 -21.43457031 6.74633789 C-23.95177234 6.99523139 -25.61780887 6.78671127 -28 6 C-27.01 6 -26.02 6 -25 6 C-25 5.34 -25 4.68 -25 4 C-16.68197833 1.79572426 -8.67130006 -0.27097813 0 0 Z " fill="#535352" transform="translate(668,330)"/>
<path d="M0 0 C1.42090531 3.852656 0.59231818 6.82197417 -0.3125 10.75 C-0.59480469 11.99910156 -0.87710937 13.24820312 -1.16796875 14.53515625 C-1.78386984 17.099965 -2.43209723 19.64333027 -3.125 22.1875 C-4.25237102 27.09961657 -4.6493591 31.9802987 -5 37 C-6.485 37.495 -6.485 37.495 -8 38 C-7.35072315 33.33073244 -6.67855933 28.66509538 -6 24 C-5.855625 22.95070313 -5.71125 21.90140625 -5.5625 20.8203125 C-4.48515967 13.56750351 -2.51390122 6.88271985 0 0 Z " fill="#8B8B8A" transform="translate(442,481)"/>
<path d="M0 0 C-0.99 0 -1.98 0 -3 0 C-3.33 0.99 -3.66 1.98 -4 3 C-8.33296133 3.33828768 -12.66642019 3.66973748 -17 4 C-18.83111328 4.14308594 -18.83111328 4.14308594 -20.69921875 4.2890625 C-26.81847793 4.75214157 -32.86314714 5.12273706 -39 5 C-39 4.67 -39 4.34 -39 4 C-34.09012767 3.25971305 -29.17888938 2.52960337 -24.26611328 1.80883789 C-22.59545231 1.56227518 -20.92519685 1.31294811 -19.25537109 1.06079102 C-16.85355555 0.6985898 -14.45045175 0.34639173 -12.046875 -0.00390625 C-11.30193787 -0.11843643 -10.55700073 -0.23296661 -9.78948975 -0.35096741 C-6.29446321 -0.85084917 -3.35781546 -1.26109736 0 0 Z " fill="#9C9C9B" transform="translate(156,408)"/>
<path d="M0 0 C0.66 0 1.32 0 2 0 C1.51076314 5.96868975 0.42586561 11.32457785 -1.234375 17.0703125 C-2.51815095 21.98272048 -3.25559317 26.98182223 -4 32 C-4.33 32 -4.66 32 -5 32 C-5.02727345 29.33326258 -5.04696948 26.66681131 -5.0625 24 C-5.07087891 23.25621094 -5.07925781 22.51242187 -5.08789062 21.74609375 C-5.10966272 16.73851156 -4.71541549 11.95720968 -4 7 C-3.01 7 -2.02 7 -1 7 C-0.67 4.69 -0.34 2.38 0 0 Z " fill="#A0A19E" transform="translate(575,436)"/>
<path d="M0 0 C0.33 0 0.66 0 1 0 C1.31764871 6.01089101 0.14464476 11.09559517 -1.4375 16.875 C-3.01180716 22.66950869 -4.28860114 28.18514006 -4.67602539 34.19189453 C-5 36 -5 36 -7 38 C-7.20952846 31.56282 -7.02065412 26.18082437 -5 20 C-4.66140041 17.66742506 -4.3267961 15.33425788 -4 13 C-3.67 12.67 -3.34 12.34 -3 12 C-2.71710819 9.74584622 -2.5522881 7.49159344 -2.37890625 5.2265625 C-2 3 -2 3 0 0 Z " fill="#999998" transform="translate(538,612)"/>
<path d="M0 0 C0.66 1.32 1.32 2.64 2 4 C2.66 3.67 3.32 3.34 4 3 C4 3.99 4 4.98 4 6 C20.5 6 37 6 54 6 C54 6.33 54 6.66 54 7 C36.18 7 18.36 7 0 7 C0 4.69 0 2.38 0 0 Z " fill="#8F8F8D" transform="translate(105,643)"/>
<path d="M0 0 C0.92617913 2.98089237 1.01687593 4.94904932 0.29296875 7.9765625 C0.11926758 8.72566895 -0.05443359 9.47477539 -0.23339844 10.24658203 C-0.42450195 11.03145996 -0.61560547 11.81633789 -0.8125 12.625 C-1.18957274 14.23940353 -1.56587976 15.8539861 -1.94140625 17.46875 C-2.21621826 18.63470703 -2.21621826 18.63470703 -2.49658203 19.82421875 C-3.43116467 23.86350124 -4.21227102 27.93006695 -5 32 C-5.33 32 -5.66 32 -6 32 C-6.08144943 29.29105233 -6.14070614 26.58458737 -6.1875 23.875 C-6.21263672 23.11445312 -6.23777344 22.35390625 -6.26367188 21.5703125 C-6.32867388 16.54349107 -5.57351801 13.44058009 -3 9 C-2.40107208 7.38807054 -1.83388963 5.76365314 -1.3125 4.125 C-1.06113281 3.34382812 -0.80976562 2.56265625 -0.55078125 1.7578125 C-0.36902344 1.17773438 -0.18726563 0.59765625 0 0 Z " fill="#B0B1AF" transform="translate(552,548)"/>
<path d="M0 0 C1.06627133 3.21045743 0.94002049 4.87430315 -0.30078125 7.99609375 C-2.31052843 13.57694547 -3.24044643 19.22172216 -4.1875 25.0625 C-4.36474609 26.11888672 -4.54199219 27.17527344 -4.72460938 28.26367188 C-5.15618309 30.84145002 -5.58116655 33.42012674 -6 36 C-6.33 36 -6.66 36 -7 36 C-7.05380578 33.20807795 -7.09357669 30.4171859 -7.125 27.625 C-7.14175781 26.8309375 -7.15851562 26.036875 -7.17578125 25.21875 C-7.19335473 23.14507985 -7.10335168 21.07116759 -7 19 C-6.34 18.34 -5.68 17.68 -5 17 C-4.23987641 14.31231772 -3.55884017 11.65674919 -2.9375 8.9375 C-1.11993243 1.11993243 -1.11993243 1.11993243 0 0 Z " fill="#BCBCBB" transform="translate(610,272)"/>
<path d="M0 0 C1.51119082 3.96560813 0.52589242 7.55553973 -0.3125 11.5625 C-0.59663195 12.99083019 -0.88048464 14.41921595 -1.1640625 15.84765625 C-1.30618164 16.54906738 -1.44830078 17.25047852 -1.59472656 17.97314453 C-2.16176606 20.8090252 -2.67668849 23.65352135 -3.1875 26.5 C-3.34605469 27.3765625 -3.50460937 28.253125 -3.66796875 29.15625 C-3.77753906 29.7646875 -3.88710938 30.373125 -4 31 C-4.33 31 -4.66 31 -5 31 C-5.02698189 29.37509046 -5.04638757 27.75005367 -5.0625 26.125 C-5.07410156 25.22007812 -5.08570313 24.31515625 -5.09765625 23.3828125 C-5 21 -5 21 -4 19 C-4.04054933 15.6122876 -4.1262462 12.23670423 -4.30273438 8.85351562 C-4.35546875 6.72265625 -4.35546875 6.72265625 -4 3 C-1.98828125 0.99609375 -1.98828125 0.99609375 0 0 Z " fill="#B9BAB9" transform="translate(630,176)"/>
<path d="M0 0 C0.33 0 0.66 0 1 0 C1.35537647 6.15985888 0.26768822 11.17092676 -1.34375 17.109375 C-1.92279128 19.65991396 -2.12231697 21.66095755 -2 24.25 C-2 28.87729562 -3.18842273 31.77298636 -5 36 C-5.66 36 -6.32 36 -7 36 C-6.55410551 31.36269733 -5.80170671 27.00968227 -4.625 22.5 C-2.69172617 15.07165721 -1.35115303 7.55112472 0 0 Z " fill="#8F8F90" transform="translate(433,519)"/>
<path d="M0 0 C2.1464753 0.11344376 4.29220592 0.24106345 6.4375 0.375 C8.22994141 0.47941406 8.22994141 0.47941406 10.05859375 0.5859375 C11.02925781 0.72257812 11.99992187 0.85921875 13 1 C13.33 1.66 13.66 2.32 14 3 C11.92085336 3.70005949 9.83648414 4.38462244 7.75 5.0625 C6.58984375 5.44535156 5.4296875 5.82820313 4.234375 6.22265625 C1.19922915 6.95211763 -0.15703213 7.11889082 -3 6 C-2.01 4.02 -1.02 2.04 0 0 Z " fill="#212121" transform="translate(85,409)"/>
<path d="M0 0 C0.99386719 0.00902344 1.98773438 0.01804687 3.01171875 0.02734375 C4.15060547 0.04474609 4.15060547 0.04474609 5.3125 0.0625 C4.3225 0.5575 4.3225 0.5575 3.3125 1.0625 C3.3125 1.7225 3.3125 2.3825 3.3125 3.0625 C2.3225 3.0625 1.3325 3.0625 0.3125 3.0625 C0.3125 3.7225 0.3125 4.3825 0.3125 5.0625 C-3.3175 5.0625 -6.9475 5.0625 -10.6875 5.0625 C-7.921212 -0.470076 -5.72885581 -0.0673983 0 0 Z " fill="#ECECEB" transform="translate(267.6875,410.9375)"/>
<path d="M0 0 C0.66 0.33 1.32 0.66 2 1 C3.67061696 0.91008832 5.33793042 0.75373244 7 0.5625 C12.35668814 0.01055591 17.61964909 -0.10503939 23 0 C23 0.33 23 0.66 23 1 C22.40050537 1.07516846 21.80101074 1.15033691 21.18334961 1.2277832 C18.43325951 1.57874001 15.68549223 1.9454924 12.9375 2.3125 C11.99455078 2.43044922 11.05160156 2.54839844 10.08007812 2.66992188 C5.82181595 3.24857074 1.96146544 3.83655164 -1.96875 5.625 C-5.50851273 7.23066557 -7.30430878 6.99152691 -11 6 C-7.77208445 3.8480563 -6.71599191 3.79913557 -3 4 C-3 3.34 -3 2.68 -3 2 C-2.01 2 -1.02 2 0 2 C0 1.34 0 0.68 0 0 Z " fill="#C6C6C4" transform="translate(372,370)"/>
<path d="M0 0 C-9.99770212 4.18085725 -19.24157815 4.14965347 -30 4 C-30 3.67 -30 3.34 -30 3 C-25.75202223 2.29959257 -21.50138178 1.61691386 -17.25 0.9375 C-15.44015625 0.63875977 -15.44015625 0.63875977 -13.59375 0.33398438 C-12.43359375 0.15029297 -11.2734375 -0.03339844 -10.078125 -0.22265625 C-8.47565918 -0.48187866 -8.47565918 -0.48187866 -6.84082031 -0.74633789 C-4.20016422 -0.98212697 -2.48550551 -0.84161104 0 0 Z " fill="#8D8E8D" transform="translate(313,384)"/>
<path d="M0 0 C0.33 0 0.66 0 1 0 C1.19818283 6.70518586 1.30844801 12.65176798 -1 19 C-1.66 19 -2.32 19 -3 19 C-3.33 20.98 -3.66 22.96 -4 25 C-4.99830483 21.85699025 -4.95833041 19.73171459 -4.2578125 16.5234375 C-4.07863281 15.688125 -3.89945312 14.8528125 -3.71484375 13.9921875 C-3.52019531 13.12851562 -3.32554687 12.26484375 -3.125 11.375 C-2.93808594 10.50359375 -2.75117188 9.6321875 -2.55859375 8.734375 C-1.15743046 2.31486092 -1.15743046 2.31486092 0 0 Z " fill="#6C6D6A" transform="translate(308,270)"/>
<path d="M0 0 C0.33 0 0.66 0 1 0 C0.67 7.26 0.34 14.52 0 22 C-0.99 22.33 -1.98 22.66 -3 23 C-3.33 24.65 -3.66 26.3 -4 28 C-5.06540371 24.80378888 -4.96116467 23.91791536 -4.25 20.75 C-4.06179687 19.88117187 -3.87359375 19.01234375 -3.6796875 18.1171875 C-3.45539063 17.08851563 -3.23109375 16.05984375 -3 15 C-2.44886184 12.2935424 -1.91223355 9.58424701 -1.375 6.875 C-1.11222039 5.55984761 -0.84921864 4.24473958 -0.5859375 2.9296875 C-0.39257812 1.96289062 -0.19921875 0.99609375 0 0 Z " fill="#4E4E4A" transform="translate(237,603)"/>
<path d="M0 0 C0.66 0.33 1.32 0.66 2 1 C1.26328283 6.71537426 0.14957381 12.30542556 -1.0625 17.9375 C-1.24876953 18.81212891 -1.43503906 19.68675781 -1.62695312 20.58789062 C-2.08255297 22.72570528 -2.54098592 24.86291582 -3 27 C-3.33 27 -3.66 27 -4 27 C-4.10481309 21.23528001 -3.73291127 15.7147271 -3 10 C-2.90460937 9.22527344 -2.80921875 8.45054687 -2.7109375 7.65234375 C-2.47826451 5.76769254 -2.23975175 3.88376378 -2 2 C-1.34 2 -0.68 2 0 2 C0 1.34 0 0.68 0 0 Z " fill="#B1B1B0" transform="translate(557,519)"/>
<path d="M0 0 C0.80566406 0.00322266 1.61132812 0.00644531 2.44140625 0.00976562 C3.70404297 0.02233398 3.70404297 0.02233398 4.9921875 0.03515625 C6.26642578 0.04192383 6.26642578 0.04192383 7.56640625 0.04882812 C9.66669659 0.06062751 11.7669508 0.07856319 13.8671875 0.09765625 C13.8671875 0.42765625 13.8671875 0.75765625 13.8671875 1.09765625 C10.38828291 1.57873802 6.90901798 2.05716516 3.4296875 2.53515625 C2.45580078 2.66986328 1.48191406 2.80457031 0.47851562 2.94335938 C-5.3848476 3.7473657 -11.24782523 4.47081686 -17.1328125 5.09765625 C-17.1328125 4.43765625 -17.1328125 3.77765625 -17.1328125 3.09765625 C-14.26391021 1.66320511 -11.39476956 1.66692507 -8.2265625 1.37890625 C-5.21622037 0.97453193 -3.14882165 -0.0221748 0 0 Z " fill="#686867" transform="translate(230.1328125,395.90234375)"/>
<path d="M0 0 C2.49118953 3.7367843 2.2065226 5.74451819 2.125 10.1875 C2.10695313 11.45980469 2.08890625 12.73210938 2.0703125 14.04296875 C2.03550781 15.50669922 2.03550781 15.50669922 2 17 C1.01 17.33 0.02 17.66 -1 18 C-2.55747511 11.57541517 -2.41109022 6.17841869 0 0 Z " fill="#EAEAEA" transform="translate(119,584)"/>
<path d="M0 0 C0.74958984 0.05220703 1.49917969 0.10441406 2.27148438 0.15820312 C4.11887082 0.28763784 5.96574371 0.42436518 7.8125 0.5625 C7.8125 0.8925 7.8125 1.2225 7.8125 1.5625 C4.81364586 2.07037046 1.81371874 2.56896625 -1.1875 3.0625 C-2.44626953 3.27712891 -2.44626953 3.27712891 -3.73046875 3.49609375 C-8.95932201 4.34730242 -13.89025027 4.70964583 -19.1875 4.5625 C-18.5275 3.9025 -17.8675 3.2425 -17.1875 2.5625 C-14.5625 2.9375 -14.5625 2.9375 -12.1875 3.5625 C-11.8575 2.5725 -11.5275 1.5825 -11.1875 0.5625 C-7.35939179 -0.71353607 -3.95274893 -0.30033987 0 0 Z " fill="#D2D3D1" transform="translate(328.1875,378.4375)"/>
<path d="M0 0 C0 0.33 0 0.66 0 1 C-1.57587891 1.18175781 -1.57587891 1.18175781 -3.18359375 1.3671875 C-12.27972768 2.40229103 -12.27972768 2.40229103 -21.25 4.1875 C-24.72817794 4.94110522 -25.80776934 4.99580647 -29 4 C-21.17353004 -2.00029364 -9.291196 -0.12049101 0 0 Z " fill="#585857" transform="translate(509,356)"/>
<path d="M0 0 C0 0.66 0 1.32 0 2 C1.32 2.33 2.64 2.66 4 3 C0.93852743 3.50642925 -2.12432299 4.00399322 -5.1875 4.5 C-6.05181641 4.64308594 -6.91613281 4.78617187 -7.80664062 4.93359375 C-11.90526577 5.59314262 -15.83226024 6.20709266 -20 6 C-18.0373772 3.95204577 -16.5722693 3.05023362 -13.73046875 2.80078125 C-11.48045617 2.81141123 -9.24614438 2.87041475 -7 3 C-7 2.01 -7 1.02 -7 0 C-3.98968256 -0.93423645 -3.13349732 -1.04449911 0 0 Z " fill="#D7D8D7" transform="translate(543,345)"/>
<path d="M0 0 C0.66 0.66 1.32 1.32 2 2 C0.09517749 3.90482251 -3.13092331 3.70185438 -5.6875 4.0625 C-7.51861328 4.32740234 -7.51861328 4.32740234 -9.38671875 4.59765625 C-12.63272848 4.95910382 -15.73854262 5.07514879 -19 5 C-16.4156782 2.4156782 -14.10624423 1.89598837 -10.625 0.8125 C-9.48289062 0.44769531 -8.34078125 0.08289063 -7.1640625 -0.29296875 C-4.16045009 -0.96414634 -2.77816965 -1.19879923 0 0 Z " fill="#DFDFDF" transform="translate(95,414)"/>
<path d="M0 0 C1.60294922 0.04060547 1.60294922 0.04060547 3.23828125 0.08203125 C4.04652344 0.11683594 4.85476562 0.15164063 5.6875 0.1875 C3.1940285 3.24537214 1.01830659 3.8254897 -2.8125 4.5 C-3.7715625 4.68175781 -4.730625 4.86351562 -5.71875 5.05078125 C-8.3125 5.1875 -8.3125 5.1875 -11.3125 3.1875 C-7.38423635 0.41074962 -4.78125108 -0.15762366 0 0 Z " fill="#E9E9E9" transform="translate(105.3125,410.8125)"/>
<path d="M0 0 C1.65 0 3.3 0 5 0 C5 0.33 5 0.66 5 1 C8.96 1.33 12.92 1.66 17 2 C17 2.66 17 3.32 17 4 C10.73 4 4.46 4 -2 4 C-1.34 2.68 -0.68 1.36 0 0 Z " fill="#F3F3F1" transform="translate(368,396)"/>
<path d="M0 0 C0.69802734 0.00386719 1.39605469 0.00773437 2.11523438 0.01171875 C2.80939453 0.00785156 3.50355469 0.00398438 4.21875 0 C9.42445449 0.01007881 9.42445449 0.01007881 11.67773438 1.13671875 C11.67773438 1.79671875 11.67773438 2.45671875 11.67773438 3.13671875 C9.05246249 3.19053981 6.42828725 3.23030188 3.80273438 3.26171875 C3.05636719 3.27847656 2.31 3.29523438 1.54101562 3.3125 C-0.41421024 3.33011465 -2.36968584 3.23992064 -4.32226562 3.13671875 C-4.98226563 2.47671875 -5.64226562 1.81671875 -6.32226562 1.13671875 C-4.57602683 -0.60952005 -2.32348238 0.00450724 0 0 Z " fill="#DDDDDB" transform="translate(375.322265625,440.86328125)"/>
<path d="M0 0 C1.64177401 3.28354802 0.26642648 6.65628996 -0.4375 10.125 C-0.58509766 10.87910156 -0.73269531 11.63320313 -0.88476562 12.41015625 C-1.25057648 14.27461157 -1.62452356 16.13746714 -2 18 C-3.96811592 14.27521864 -4.85288803 11.26624705 -5 7 C-3.5167749 4.33019483 -2.15883622 2.15883622 0 0 Z " fill="#1D1E1E" transform="translate(173,321)"/>
<path d="M0 0 C0.33 0 0.66 0 1 0 C1.21767642 8.96101244 1.04404545 17.2215548 -1 26 C-1.66 26 -2.32 26 -3 26 C-3.18960162 20.78595539 -2.75390222 16.37714451 -1.51171875 11.3203125 C-0.68576182 7.57513373 -0.3633504 3.81517915 0 0 Z " fill="#7C7B78" transform="translate(301,299)"/>
<path d="M0 0 C1.32598125 2.65196251 0.46257024 3.87239496 -0.38671875 6.58203125 C-1.74861613 11.95155024 -2.28468931 17.51341483 -3 23 C-3.33 23 -3.66 23 -4 23 C-4 17.06 -4 11.12 -4 5 C-3.34 5 -2.68 5 -2 5 C-1.7834375 4.0409375 -1.7834375 4.0409375 -1.5625 3.0625 C-1 1 -1 1 0 0 Z " fill="#41413E" transform="translate(313,258)"/>
<path d="M0 0 C0.33 0 0.66 0 1 0 C0.67 6.6 0.34 13.2 0 20 C-0.99 20 -1.98 20 -3 20 C-3.33 21.32 -3.66 22.64 -4 24 C-3.28621973 15.86290495 -1.67226118 7.98268072 0 0 Z " fill="#696A65" transform="translate(330,164)"/>
<path d="M0 0 C1.56393356 3.97376829 0.36145292 6.81377903 -0.9375 10.75 C-1.31777344 11.92046875 -1.69804687 13.0909375 -2.08984375 14.296875 C-2.39019531 15.18890625 -2.69054687 16.0809375 -3 17 C-3.66 17 -4.32 17 -5 17 C-5.33 17.99 -5.66 18.98 -6 20 C-5.67 16.37 -5.34 12.74 -5 9 C-4.01 9 -3.02 9 -2 9 C-2 7.02 -2 5.04 -2 3 C-1.34 3 -0.68 3 0 3 C0 2.01 0 1.02 0 0 Z " fill="#3E3E3A" transform="translate(252,547)"/>
<path d="M0 0 C-3.0817499 2.05449993 -5.3095757 2.74475809 -8.875 3.625 C-9.90367187 3.88539063 -10.93234375 4.14578125 -11.9921875 4.4140625 C-14.75879061 4.95301116 -17.19284196 5.11394368 -20 5 C-20.33 4.01 -20.66 3.02 -21 2 C-18.62561751 1.6616656 -16.25065041 1.32920998 -13.875 1 C-12.87726562 0.85691406 -12.87726562 0.85691406 -11.859375 0.7109375 C-7.87371019 0.16388547 -4.02140062 -0.10022182 0 0 Z " fill="#B6B7B5" transform="translate(673,350)"/>
<path d="M0 0 C0.66 0 1.32 0 2 0 C2.19658808 1.41543415 2.38187546 2.83244031 2.5625 4.25 C2.66691406 5.03890625 2.77132812 5.8278125 2.87890625 6.640625 C3.00211719 9.04125113 2.83159765 10.74920877 2 13 C1.01 13.495 1.01 13.495 0 14 C0 12.35 0 10.7 0 9 C-0.66 9 -1.32 9 -2 9 C-1.34 6.03 -0.68 3.06 0 0 Z " fill="#F0F1F0" transform="translate(150,441)"/>
<path d="M0 0 C0 0.33 0 0.66 0 1 C-3.56173477 1.5055539 -7.12449819 2.00346114 -10.6875 2.5 C-12.19860352 2.71462891 -12.19860352 2.71462891 -13.74023438 2.93359375 C-15.20493164 3.13662109 -15.20493164 3.13662109 -16.69921875 3.34375 C-18.04246216 3.53227539 -18.04246216 3.53227539 -19.4128418 3.72460938 C-21.96397361 3.99616516 -24.4366743 4.04847897 -27 4 C-21.05796005 -1.94203995 -7.80627533 -0.2266338 0 0 Z " fill="#505150" transform="translate(416,370)"/>
<path d="M0 0 C-3.64517956 2.20191049 -7.18755402 2.59843494 -11.375 3.125 C-13.30472656 3.37636719 -13.30472656 3.37636719 -15.2734375 3.6328125 C-18.55078659 3.95573788 -21.7107898 4.07128319 -25 4 C-25 3.34 -25 2.68 -25 2 C-21.65231544 0.32615772 -17.87539658 0.61449582 -14.1875 0.4375 C-12.97610352 0.37272461 -12.97610352 0.37272461 -11.74023438 0.30664062 C-7.82299613 0.10452268 -3.92386425 -0.0557141 0 0 Z " fill="#676967" transform="translate(301,387)"/>
<path d="M0 0 C-2 2 -2 2 -4.3125 2.4375 C-7.09889129 2.86423433 -7.09889129 2.86423433 -9.5625 4.5625 C-12 6 -12 6 -16 6 C-16 5.34 -16 4.68 -16 4 C-16.66 3.34 -17.32 2.68 -18 2 C-11.93184478 0.77100654 -6.20104812 -0.27560214 0 0 Z " fill="#D0D0D0" transform="translate(547,369)"/>
<path d="M0 0 C0.33 0 0.66 0 1 0 C1.08126087 2.08268593 1.13930839 4.16628658 1.1875 6.25 C1.22230469 7.41015625 1.25710937 8.5703125 1.29296875 9.765625 C0.97458759 13.28055299 0.32366151 14.44397234 -2 17 C-2.69580267 18.31836295 -3.37224433 19.64791086 -4 21 C-4.19527708 16.1180731 -3.67706877 12.56535387 -2 8 C-1.28640449 5.3433032 -0.64554946 2.67441919 0 0 Z " fill="#51524D" transform="translate(242,582)"/>
<path d="M0 0 C0.66 0 1.32 0 2 0 C3.13016601 5.02296004 2.77916092 8.97874074 2 14 C1.34 13.67 0.68 13.34 0 13 C-0.66 14.32 -1.32 15.64 -2 17 C-1.03644647 5.47835991 -1.03644647 5.47835991 0 0 Z " fill="#E7E7E6" transform="translate(431,541)"/>
<path d="M0 0 C0.33 0.99 0.66 1.98 1 3 C-2 5 -2 5 -6 5 C-6 4.34 -6 3.68 -6 3 C-8.64 3 -11.28 3 -14 3 C-14 2.34 -14 1.68 -14 1 C-13.11248047 1.01740234 -13.11248047 1.01740234 -12.20703125 1.03515625 C-7.99768215 1.08322386 -4.1077667 1.06006883 0 0 Z " fill="#181917" transform="translate(158,391)"/>
<path d="M0 0 C7.26 0 14.52 0 22 0 C22 0.33 22 0.66 22 1 C10.615 1.99 10.615 1.99 -1 3 C-0.67 2.01 -0.34 1.02 0 0 Z " fill="#DEDEDD" transform="translate(648,329)"/>
<path d="M0 0 C2 2 2 2 2 5 C2.66 4.67 3.32 4.34 4 4 C3.88512252 5.58409994 3.75765492 7.16728963 3.625 8.75 C3.52058594 10.07257813 3.52058594 10.07257813 3.4140625 11.421875 C3.00149945 13.99066382 2.28839043 15.75841015 1 18 C-0.32594359 12.03325384 -0.0884587 6.07416385 0 0 Z " fill="#1E1E1E" transform="translate(506,153)"/>
<path d="M0 0 C1.96565364 3.51009579 3.06019273 7.09618518 4 11 C3.67 11.66 3.34 12.32 3 13 C3.66 13.33 4.32 13.66 5 14 C3.68 14 2.36 14 1 14 C1 13.01 1 12.02 1 11 C0.34 11 -0.32 11 -1 11 C-1.125 3.375 -1.125 3.375 0 0 Z " fill="#B2B2B1" transform="translate(408,636)"/>
<path d="M0 0 C1.27899315 3.83697944 0.52894817 5.95236252 -0.375 9.875 C-0.65085938 11.08929687 -0.92671875 12.30359375 -1.2109375 13.5546875 C-1.47132813 14.69164062 -1.73171875 15.82859375 -2 17 C-2.34012629 18.66529367 -2.67643307 20.33140978 -3 22 C-3.33 22 -3.66 22 -4 22 C-4.27967756 14.58854456 -4.20934535 6.31401802 0 0 Z " fill="#252622" transform="translate(241,596)"/>
<path d="M0 0 C0 0.33 0 0.66 0 1 C-1.2065625 1.13277344 -2.413125 1.26554687 -3.65625 1.40234375 C-5.27083664 1.58069925 -6.88541979 1.75908636 -8.5 1.9375 C-9.68722656 2.06801758 -9.68722656 2.06801758 -10.8984375 2.20117188 C-15.93815103 2.75884509 -20.97010066 3.35972612 -26 4 C-26 3.34 -26 2.68 -26 2 C-17.86008714 -0.71330429 -8.49826608 -0.15055983 0 0 Z " fill="#616260" transform="translate(199,403)"/>
<path d="M0 0 C1.41687119 4.25061356 0.19320039 6.71851625 -1 11 C-1.66 10.34 -2.32 9.68 -3 9 C-3.99 9.66 -4.98 10.32 -6 11 C-6 9.02 -6 7.04 -6 5 C-5.38125 4.9175 -4.7625 4.835 -4.125 4.75 C-1.81562433 4.18741541 -1.81562433 4.18741541 -0.75 1.9375 C-0.5025 1.298125 -0.255 0.65875 0 0 Z " fill="#C0C1BD" transform="translate(232,625)"/>
<path d="M0 0 C1.52519276 0.08937803 3.04681929 0.24537146 4.5625 0.4375 C5.38878906 0.53933594 6.21507812 0.64117187 7.06640625 0.74609375 C7.70449219 0.82988281 8.34257812 0.91367187 9 1 C9 1.33 9 1.66 9 2 C8.00097656 2.13277344 7.00195312 2.26554687 5.97265625 2.40234375 C4.68230469 2.57894531 3.39195312 2.75554687 2.0625 2.9375 C0.77472656 3.11152344 -0.51304687 3.28554688 -1.83984375 3.46484375 C-4.85466313 3.66162423 -4.85466313 3.66162423 -6 5 C-7.84891946 5.23363881 -9.70488031 5.41303635 -11.5625 5.5625 C-13.08037109 5.68818359 -13.08037109 5.68818359 -14.62890625 5.81640625 C-15.41136719 5.87699219 -16.19382812 5.93757813 -17 6 C-13.69513117 3.79675411 -11.23910486 3.25573063 -7.375 2.4375 C-3.37000416 1.88314231 -3.37000416 1.88314231 0 0 Z " fill="#C3C3C1" transform="translate(274,386)"/>
<path d="M0 0 C2.21435076 3.32152614 2.09285903 4.19277961 2 8 C2.18304688 8.60457031 2.36609375 9.20914062 2.5546875 9.83203125 C3.11645595 12.56695661 2.66967861 14.53555445 2.0625 17.25 C1.77052734 18.58804687 1.77052734 18.58804687 1.47265625 19.953125 C1.31667969 20.62859375 1.16070312 21.3040625 1 22 C0.67 22 0.34 22 0 22 C0.33 19.36 0.66 16.72 1 14 C0.34 14 -0.32 14 -1 14 C-0.67 9.38 -0.34 4.76 0 0 Z " fill="#252625" transform="translate(178,279)"/>
<path d="M0 0 C1.3448757 2.68975139 0.71921998 3.89291421 0.00390625 6.7890625 C-0.22490234 7.73007813 -0.45371094 8.67109375 -0.68945312 9.640625 C-0.93630859 10.62546875 -1.18316406 11.6103125 -1.4375 12.625 C-1.68048828 13.61757812 -1.92347656 14.61015625 -2.17382812 15.6328125 C-2.77634643 18.09014208 -3.38531647 20.54569033 -4 23 C-4.80489089 19.98096289 -5.10855119 17.38148111 -5.0625 14.25 C-5.05347656 13.45078125 -5.04445312 12.6515625 -5.03515625 11.828125 C-5.02355469 11.22484375 -5.01195312 10.6215625 -5 10 C-4.01 9.67 -3.02 9.34 -2 9 C-1.7834375 7.0509375 -1.7834375 7.0509375 -1.5625 5.0625 C-1.125 1.125 -1.125 1.125 0 0 Z " fill="#676868" transform="translate(216,124)"/>
<path d="M0 0 C1.4384798 0.06423833 2.87666999 0.14163547 4.3125 0.25 C3.9825 1.24 3.6525 2.23 3.3125 3.25 C0.56171116 4.16692961 -1.04698913 4.35886083 -3.875 4.3125 C-5.7621875 4.2815625 -5.7621875 4.2815625 -7.6875 4.25 C-5.84004374 0.30875998 -4.09551026 -0.02575793 0 0 Z " fill="#ECECEB" transform="translate(152.6875,427.75)"/>
<path d="M0 0 C-1.0625 2 -1.0625 2 -3 4 C-7.25058287 4.46369995 -10.35918336 4.33012265 -14 2 C-9.15758367 0.66416101 -5.06562383 -0.25328119 0 0 Z " fill="#E5E6E5" transform="translate(475,380)"/>
<path d="M0 0 C2.05078125 0.03255208 4.1015625 0.06510417 6.15234375 0.09765625 C6.15234375 0.75765625 6.15234375 1.41765625 6.15234375 2.09765625 C-0.6125127 3.70970715 -6.89724539 4.3638422 -13.84765625 4.09765625 C-13.84765625 3.76765625 -13.84765625 3.43765625 -13.84765625 3.09765625 C-12.67396484 2.89849609 -12.67396484 2.89849609 -11.4765625 2.6953125 C-10.46464844 2.51871094 -9.45273437 2.34210938 -8.41015625 2.16015625 C-7.40082031 1.98613281 -6.39148438 1.81210937 -5.3515625 1.6328125 C-2.95402049 1.12038932 -2.29575316 0.12134002 0 0 Z " fill="#656462" transform="translate(360.84765625,375.90234375)"/>
<path d="M0 0 C-3.18900456 2.12600304 -5.90414569 3.02136239 -9.5625 4.125 C-11.29693359 4.65480469 -11.29693359 4.65480469 -13.06640625 5.1953125 C-16 6 -16 6 -18 6 C-18 5.34 -18 4.68 -18 4 C-17.01 3.67 -16.02 3.34 -15 3 C-14.67 2.34 -14.34 1.68 -14 1 C-9.28474515 0.20080426 -4.78845757 -0.11971144 0 0 Z " fill="#C5C5C3" transform="translate(631,362)"/>
<path d="M0 0 C0.74056641 0.00451172 1.48113281 0.00902344 2.24414062 0.01367188 C4.05862899 0.02537825 5.87307534 0.04331102 7.6875 0.0625 C7.6875 0.3925 7.6875 0.7225 7.6875 1.0625 C5.31311751 1.4008344 2.93815041 1.73329002 0.5625 2.0625 C-0.10265625 2.15789062 -0.7678125 2.25328125 -1.453125 2.3515625 C-5.43878981 2.89861453 -9.29109938 3.16272182 -13.3125 3.0625 C-13.3125 2.4025 -13.3125 1.7425 -13.3125 1.0625 C-8.8746439 -0.04915232 -4.54293614 -0.05277763 0 0 Z " fill="#C6C7C6" transform="translate(601.3125,337.9375)"/>
<path d="M0 0 C0.33 0 0.66 0 1 0 C1.05437607 1.58294782 1.09296271 3.16644256 1.125 4.75 C1.14820313 5.63171875 1.17140625 6.5134375 1.1953125 7.421875 C0.9884684 10.1522171 0.30335979 11.63025493 -1 14 C-1.38290462 15.99110401 -1.72604615 17.99100513 -2 20 C-2.66 20 -3.32 20 -4 20 C-3.34034961 13.13963599 -1.7637236 6.65556077 0 0 Z " fill="#A6A6A6" transform="translate(508,167)"/>
<path d="M0 0 C0.33 0 0.66 0 1 0 C0.59722507 7.54673035 0.17808026 14.73973247 -2 22 C-2.33 22 -2.66 22 -3 22 C-2.67 16.39 -2.34 10.78 -2 5 C-1.34 5 -0.68 5 0 5 C0 3.35 0 1.7 0 0 Z " fill="#3C3D39" transform="translate(333,157)"/>
<path d="M0 0 C0.33 0 0.66 0 1 0 C0.88512252 1.58409994 0.75765492 3.16728963 0.625 4.75 C0.55539063 5.63171875 0.48578125 6.5134375 0.4140625 7.421875 C0 10 0 10 -2 14 C-6.62 14 -11.24 14 -16 14 C-16 13.67 -16 13.34 -16 13 C-15.15695313 12.96261719 -14.31390625 12.92523437 -13.4453125 12.88671875 C-11.80175781 12.78810547 -11.80175781 12.78810547 -10.125 12.6875 C-9.03445312 12.62949219 -7.94390625 12.57148437 -6.8203125 12.51171875 C-5.88960937 12.34285156 -4.95890625 12.17398438 -4 12 C-2.09681116 9.14521674 -1.5380901 7.58058692 -0.875 4.3125 C-0.70742187 3.50425781 -0.53984375 2.69601562 -0.3671875 1.86328125 C-0.24601563 1.24839844 -0.12484375 0.63351562 0 0 Z " fill="#AFB0AD" transform="translate(229,636)"/>
<path d="M0 0 C1.2825732 2.5651464 0.83262969 3.57895596 0.22265625 6.3515625 C-0.05288086 7.62773438 -0.05288086 7.62773438 -0.33398438 8.9296875 C-0.63272461 10.26386719 -0.63272461 10.26386719 -0.9375 11.625 C-1.13279297 12.5221875 -1.32808594 13.419375 -1.52929688 14.34375 C-2.01347896 16.56390201 -2.50394969 18.7824749 -3 21 C-3.33 21 -3.66 21 -4 21 C-3.9123127 18.62337178 -3.80536886 16.25016873 -3.6875 13.875 C-3.66494141 13.20984375 -3.64238281 12.5446875 -3.61914062 11.859375 C-3.37010123 7.24082629 -2.31599822 3.98624895 0 0 Z " fill="#30312C" transform="translate(258,516)"/>
<path d="M0 0 C2.62697064 -0.22137393 5.00893964 -0.28162025 7.625 -0.1875 C8.33140625 -0.17396484 9.0378125 -0.16042969 9.765625 -0.14648438 C11.51074128 -0.1111104 13.25546608 -0.05730221 15 0 C11.46813168 2.15059309 8.33712007 2.3797728 4.25 2.625 C3.07953125 2.69976562 1.9090625 2.77453125 0.703125 2.8515625 C-0.18890625 2.90054687 -1.0809375 2.94953125 -2 3 C-1.34 2.01 -0.68 1.02 0 0 Z " fill="#C5C5C4" transform="translate(406,366)"/>
<path d="M0 0 C0.66 0.33 1.32 0.66 2 1 C1.56367091 7.88940671 0.91610155 14.35751464 -1 21 C-1.33 21 -1.66 21 -2 21 C-1.9278125 20.05898437 -1.855625 19.11796875 -1.78125 18.1484375 C-1.64203125 16.28058594 -1.64203125 16.28058594 -1.5 14.375 C-1.4071875 13.14523438 -1.314375 11.91546875 -1.21875 10.6484375 C-1.07811581 8.30286006 -1.00964365 5.95125283 -1.03125 3.6015625 C-1 1 -1 1 0 0 Z " fill="#414141" transform="translate(499,198)"/>
<path d="M0 0 C1.17246771 4.09902098 1.07076062 7.75436258 1 12 C0.34 12 -0.32 12 -1 12 C-1.66 12.99 -2.32 13.98 -3 15 C-3.36263859 9.1977825 -2.25684543 5.36000789 0 0 Z " fill="#B6B6B6" transform="translate(517,128)"/>
<path d="M0 0 C0.66 0.66 1.32 1.32 2 2 C1.81864449 4.76713403 1.5356614 7.3919776 1.125 10.125 C1.02058594 10.87910156 0.91617187 11.63320313 0.80859375 12.41015625 C0.54895402 14.27484156 0.27574971 16.13762887 0 18 C-0.33 18 -0.66 18 -1 18 C-1.99989549 11.40609458 -2.00925164 6.38232875 0 0 Z " fill="#EAEBEA" transform="translate(449,461)"/>
<path d="M0 0 C-1.32 0.33 -2.64 0.66 -4 1 C-4 1.66 -4 2.32 -4 3 C0.29 3 4.58 3 9 3 C9 3.33 9 3.66 9 4 C2.73 4 -3.54 4 -10 4 C-7.16124653 -0.25813021 -4.8137938 -0.13010254 0 0 Z " fill="#E5E5E4" transform="translate(284,439)"/>
<path d="M0 0 C1.90845703 0.04060547 1.90845703 0.04060547 3.85546875 0.08203125 C5.31919922 0.13423828 5.31919922 0.13423828 6.8125 0.1875 C3.17530395 2.61229736 0.95546518 2.57412577 -3.375 2.8125 C-4.64730469 2.88726562 -5.91960937 2.96203125 -7.23046875 3.0390625 C-8.20628906 3.08804687 -9.18210937 3.13703125 -10.1875 3.1875 C-7.45798749 -0.67846382 -4.44588996 -0.12236394 0 0 Z " fill="#5C5C5B" transform="translate(426.1875,366.8125)"/>
<path d="M0 0 C2.35876683 8.55292687 0.70261971 15.08234446 -3 23 C-4.04476012 19.56192415 -3.71636974 17.64417328 -2.61328125 14.21484375 C-1.32726744 9.57044994 -0.73431575 4.75742865 0 0 Z " fill="#A09FA0" transform="translate(493,235)"/>
<path d="M0 0 C0.33 0 0.66 0 1 0 C2.55577239 5.65735415 1.24281523 8.79666866 -1 14 C-1.66 14 -2.32 14 -3 14 C-2.48594831 9.03083364 -1.76615118 4.70973649 0 0 Z " fill="#9E9F9E" transform="translate(429,541)"/>
<path d="M0 0 C0.79921875 0.00902344 1.5984375 0.01804687 2.421875 0.02734375 C3.02515625 0.03894531 3.6284375 0.05054688 4.25 0.0625 C3.92 0.7225 3.59 1.3825 3.25 2.0625 C0.36788698 3.02320434 -1.44850044 3.16831883 -4.4375 3.125 C-5.64986328 3.11146484 -5.64986328 3.11146484 -6.88671875 3.09765625 C-7.80904297 3.08025391 -7.80904297 3.08025391 -8.75 3.0625 C-8.75 2.4025 -8.75 1.7425 -8.75 1.0625 C-5.75519083 0.1901588 -3.11424089 -0.04579766 0 0 Z " fill="#EFF0EF" transform="translate(101.75,435.9375)"/>
<path d="M0 0 C-4.65042684 2.32521342 -7.31077871 3.11460021 -12.625 3.0625 C-13.81351562 3.05347656 -15.00203125 3.04445313 -16.2265625 3.03515625 C-17.14179688 3.02355469 -18.05703125 3.01195312 -19 3 C-19 2.67 -19 2.34 -19 2 C-12.56971459 0.67611771 -6.5705166 -0.24794402 0 0 Z " fill="#858583" transform="translate(475,359)"/>
<path d="M0 0 C0.33 0 0.66 0 1 0 C1.63019694 9.01531729 1.63019694 9.01531729 -1 13.125 C-1.66 13.74375 -2.32 14.3625 -3 15 C-2.5547115 9.72684667 -1.91626837 4.98229776 0 0 Z " fill="#61615D" transform="translate(313,248)"/>
<path d="M0 0 C1.29132785 3.87398355 0.41113572 6.81988786 -0.4375 10.6875 C-0.58509766 11.38939453 -0.73269531 12.09128906 -0.88476562 12.81445312 C-1.2495932 14.54444194 -1.62388689 16.27242963 -2 18 C-2.33 18 -2.66 18 -3 18 C-3 13.71 -3 9.42 -3 5 C-2.34 5 -1.68 5 -1 5 C-0.67 3.35 -0.34 1.7 0 0 Z " fill="#BCBCBA" transform="translate(245,564)"/>
<path d="M0 0 C0.33 0 0.66 0 1 0 C1.23921569 13.63529412 1.23921569 13.63529412 -1.54296875 16.69921875 C-2.02378906 17.12847656 -2.50460937 17.55773437 -3 18 C-2.41509121 11.85845775 -1.45933748 5.99320151 0 0 Z " fill="#666663" transform="translate(266,467)"/>
<path d="M0 0 C1.3805087 3.76668598 0.59568159 6.44789173 -0.4375 10.25 C-0.72496094 11.32765625 -1.01242188 12.4053125 -1.30859375 13.515625 C-1.53675781 14.33546875 -1.76492187 15.1553125 -2 16 C-2.81788791 13.10441295 -3.18892672 10.44535913 -3.25 7.4375 C-3.27578125 6.67308594 -3.3015625 5.90867188 -3.328125 5.12109375 C-2.92308006 2.50276756 -2.00903813 1.65481299 0 0 Z " fill="#515253" transform="translate(197,211)"/>
<path d="M0 0 C0.33 0 0.66 0 1 0 C1 4.29 1 8.58 1 13 C0.34 13 -0.32 13 -1 13 C-1.33 13.66 -1.66 14.32 -2 15 C-2.22577402 9.5814234 -1.46670113 5.22512279 0 0 Z " fill="#4F504C" transform="translate(245,567)"/>
<path d="M0 0 C-0.99 0 -1.98 0 -3 0 C-3.33 0.99 -3.66 1.98 -4 3 C-6.64 3 -9.28 3 -12 3 C-12 2.34 -12 1.68 -12 1 C-3.96428571 -1.27678571 -3.96428571 -1.27678571 0 0 Z " fill="#8D8D8C" transform="translate(156,408)"/>
<path d="M0 0 C1.8871875 0.0309375 1.8871875 0.0309375 3.8125 0.0625 C1.8125 3.0625 1.8125 3.0625 -1.125 3.8125 C-4.1875 4.0625 -4.1875 4.0625 -7.1875 3.0625 C-7.1875 2.4025 -7.1875 1.7425 -7.1875 1.0625 C-4.43671116 0.14557039 -2.82801087 -0.04636083 0 0 Z " fill="#F5F6F4" transform="translate(362.1875,396.9375)"/>
<path d="M0 0 C1.21701352 3.58199015 0.8238374 6.36808069 0.1875 10.0625 C0.01605469 11.10535156 -0.15539062 12.14820313 -0.33203125 13.22265625 C-1 16 -1 16 -3 19 C-2.9278125 18.10796875 -2.855625 17.2159375 -2.78125 16.296875 C-2.6884375 15.12640625 -2.595625 13.9559375 -2.5 12.75 C-2.4071875 11.58984375 -2.314375 10.4296875 -2.21875 9.234375 C-2.05595356 6.82731342 -2 4.41256049 -2 2 C-1.34 2 -0.68 2 0 2 C0 1.34 0 0.68 0 0 Z " fill="#3E3F3F" transform="translate(203,179)"/>
<path d="M0 0 C0.66 0 1.32 0 2 0 C1.855625 0.969375 1.71125 1.93875 1.5625 2.9375 C0.93952558 7.28052169 0.46492141 11.63765234 0 16 C-0.33 16 -0.66 16 -1 16 C-1.02685095 13.52076199 -1.04676547 11.0418116 -1.0625 8.5625 C-1.07506836 7.50192383 -1.07506836 7.50192383 -1.08789062 6.41992188 C-1.09653588 4.61306441 -1.05220011 2.80612397 -1 1 C-0.67 0.67 -0.34 0.34 0 0 Z " fill="#CECECC" transform="translate(301,292)"/>
<path d="M0 0 C0.66 0 1.32 0 2 0 C1.40984815 5.50808397 0.43336231 10.64878069 -1 16 C-1.33 16 -1.66 16 -2 16 C-1.85936865 13.70800823 -1.71234057 11.41640814 -1.5625 9.125 C-1.48128906 7.84882813 -1.40007813 6.57265625 -1.31640625 5.2578125 C-1 2 -1 2 0 0 Z " fill="#A8A9A8" transform="translate(615,244)"/>
<path d="M0 0 C0.33 0 0.66 0 1 0 C1.27036084 5.27203646 0.26305335 9.92523206 -1 15 C-3.31931615 11.52102577 -3.04089055 9.96555502 -2.42578125 5.94140625 C-1.94162798 3.73384499 -1.19829583 1.91727332 0 0 Z " fill="#33332F" transform="translate(323,209)"/>
<path d="M0 0 C0.625 1.75 0.625 1.75 1 4 C0.5359375 4.91265625 0.5359375 4.91265625 0.0625 5.84375 C-1.11678885 8.23701267 -1.39152711 10.10397396 -1.625 12.75 C-1.69976562 13.54921875 -1.77453125 14.3484375 -1.8515625 15.171875 C-1.90054688 15.77515625 -1.94953125 16.3784375 -2 17 C-2.33 17 -2.66 17 -3 17 C-3.02703381 15.06257659 -3.04641125 13.12504521 -3.0625 11.1875 C-3.07410156 10.10855469 -3.08570313 9.02960937 -3.09765625 7.91796875 C-3 5 -3 5 -2 2 C-1.34 2 -0.68 2 0 2 C0 1.34 0 0.68 0 0 Z " fill="#232420" transform="translate(249,562)"/>
<path d="M0 0 C0.33 0 0.66 0 1 0 C1.26261902 6.5654756 -0.0539199 11.2192462 -3 17 C-3.05422947 15.5629191 -3.09289723 14.12524538 -3.125 12.6875 C-3.14820313 11.88699219 -3.17140625 11.08648438 -3.1953125 10.26171875 C-3 8 -3 8 -1 5 C-0.61500109 3.34450469 -0.27206865 1.6777567 0 0 Z " fill="#717370" transform="translate(562,503)"/>
<path d="M0 0 C2.31 0 4.62 0 7 0 C7 0.66 7 1.32 7 2 C8.65 2 10.3 2 12 2 C12 2.33 12 2.66 12 3 C8.7 3.33 5.4 3.66 2 4 C2 3.34 2 2.68 2 2 C1.34 2 0.68 2 0 2 C0 1.34 0 0.68 0 0 Z " fill="#262624" transform="translate(78,435)"/>
<path d="M0 0 C-5.71735105 2.45029331 -9.79029227 3.33266291 -16 3 C-16 2.67 -16 2.34 -16 2 C-14.08654673 1.46748234 -12.1690705 0.94940517 -10.25 0.4375 C-9.18265625 0.14746094 -8.1153125 -0.14257812 -7.015625 -0.44140625 C-4.15664073 -0.97098494 -2.68402617 -0.98370862 0 0 Z " fill="#838583" transform="translate(313,384)"/>
<path d="M0 0 C3.63 0.33 7.26 0.66 11 1 C8.1709277 3.8290723 7.61855575 4.37611108 4 5 C4 4.01 4 3.02 4 2 C2.35 2 0.7 2 -1 2 C-0.67 1.34 -0.34 0.68 0 0 Z " fill="#E4E4E4" transform="translate(590,366)"/>
<path d="M0 0 C0.99 0 1.98 0 3 0 C2.88490339 1.41750563 2.75746342 2.83401169 2.625 4.25 C2.55539063 5.03890625 2.48578125 5.8278125 2.4140625 6.640625 C2 9 2 9 0 13 C0 8.71 0 4.42 0 0 Z " fill="#393B3A" transform="translate(123,548)"/>
<path d="M0 0 C-1.41396902 0.50757862 -2.83131729 1.00574925 -4.25 1.5 C-5.43335938 1.91765625 -5.43335938 1.91765625 -6.640625 2.34375 C-9 3 -9 3 -13 3 C-13 2.34 -13 1.68 -13 1 C-10.7464485 -0.12677575 -8.99759671 -0.34118219 -6.5 -0.625 C-5.30890625 -0.76808594 -5.30890625 -0.76808594 -4.09375 -0.9140625 C-2 -1 -2 -1 0 0 Z " fill="#717171" transform="translate(226,398)"/>
<path d="M0 0 C0.33 0 0.66 0 1 0 C1.144375 1.11375 1.28875 2.2275 1.4375 3.375 C1.78372035 6.82142047 1.78372035 6.82142047 3 9 C1.68 10.32 0.36 11.64 -1 13 C-1.0272415 11.58344207 -1.04650467 10.16672955 -1.0625 8.75 C-1.07410156 7.96109375 -1.08570313 7.1721875 -1.09765625 6.359375 C-1.00385306 4.09308998 -0.63241063 2.1711105 0 0 Z " fill="#C6C7C7" transform="translate(174,319)"/>
<path d="M0 0 C1.09190042 3.27570125 1.28600189 5.56797729 1 9 C-0.5 10.875 -0.5 10.875 -2 12 C-2.28571429 3.42857143 -2.28571429 3.42857143 0 0 Z " fill="#EEEEEE" transform="translate(192,243)"/>
<path d="M0 0 C0 0.33 0 0.66 0 1 C-2.22850277 1.33774332 -4.45783467 1.6700187 -6.6875 2 C-8.54955078 2.2784375 -8.54955078 2.2784375 -10.44921875 2.5625 C-13.35886371 2.92100411 -16.07700022 3.08942256 -19 3 C-17.67661368 2.31379969 -16.34050052 1.65213539 -15 1 C-14.29875 0.608125 -13.5975 0.21625 -12.875 -0.1875 C-8.51754035 -1.41895599 -4.43315864 -0.63699755 0 0 Z " fill="#C8C8C6" transform="translate(336,379)"/>
<path d="M0 0 C0.69738281 0.01353516 1.39476562 0.02707031 2.11328125 0.04101562 C3.82585541 0.0762055 5.53802941 0.13000845 7.25 0.1875 C7.25 0.5175 7.25 0.8475 7.25 1.1875 C5.02149723 1.52524332 2.79216533 1.8575187 0.5625 2.1875 C-1.29955078 2.4659375 -1.29955078 2.4659375 -3.19921875 2.75 C-6.10886371 3.10850411 -8.82700022 3.27692256 -11.75 3.1875 C-8.17517469 -0.32283104 -4.73451742 -0.1745238 0 0 Z " fill="#C2C3C2" transform="translate(534.75,347.8125)"/>
<path d="M0 0 C0.66 0 1.32 0 2 0 C1.34 3.63 0.68 7.26 0 11 C-0.66 11 -1.32 11 -2 11 C-2.19622241 6.78121808 -1.80230168 3.82989106 0 0 Z " fill="#282823" transform="translate(234,626)"/>
<path d="M0 0 C0.33 0 0.66 0 1 0 C1.28571429 8.57142857 1.28571429 8.57142857 -1 12 C-1.33 12 -1.66 12 -2 12 C-1.85904936 10.3745692 -1.71207913 8.74965949 -1.5625 7.125 C-1.48128906 6.22007812 -1.40007812 5.31515625 -1.31640625 4.3828125 C-1 2 -1 2 0 0 Z " fill="#EAEAEA" transform="translate(112,617)"/>
<path d="M0 0 C0.33 0 0.66 0 1 0 C1.125 6.625 1.125 6.625 0 10 C-0.66 10 -1.32 10 -2 10 C-2.25 3.375 -2.25 3.375 0 0 Z " fill="#A7A7A5" transform="translate(538,612)"/>
<path d="M0 0 C0.66 0.66 1.32 1.32 2 2 C-1.63 2.33 -5.26 2.66 -9 3 C-9 2.34 -9 1.68 -9 1 C-5.75778445 -0.08073852 -3.39597063 -0.21676408 0 0 Z " fill="#747472" transform="translate(162,407)"/>
<path d="M0 0 C2.97 0 5.94 0 9 0 C7.515 1.485 7.515 1.485 6 3 C2.3125 2.6875 2.3125 2.6875 -1 2 C-0.67 1.34 -0.34 0.68 0 0 Z " fill="#E7E7E6" transform="translate(295,406)"/>
<path d="M0 0 C0.66 0 1.32 0 2 0 C1.43393721 4.69023454 0.81462495 9.34500026 0 14 C-0.33 14 -0.66 14 -1 14 C-1.027193 12.41676312 -1.04648306 10.83338938 -1.0625 9.25 C-1.07410156 8.36828125 -1.08570313 7.4865625 -1.09765625 6.578125 C-1.00826198 4.2181162 -0.66912821 2.25501476 0 0 Z " fill="#353531" transform="translate(327,184)"/>
<path d="M0 0 C0.33 0 0.66 0 1 0 C1.08114106 1.77007714 1.13925505 3.54122098 1.1875 5.3125 C1.23970703 6.79169922 1.23970703 6.79169922 1.29296875 8.30078125 C1 11 1 11 -0.51171875 12.85546875 C-1.00285156 13.23316406 -1.49398438 13.61085938 -2 14 C-1.85795259 12.41632253 -1.71119847 10.83306682 -1.5625 9.25 C-1.48128906 8.36828125 -1.40007812 7.4865625 -1.31640625 6.578125 C-1.03761535 4.30649548 -0.61209423 2.20148177 0 0 Z " fill="#A0A1A0" transform="translate(425,557)"/>
<path d="M0 0 C0.66 0 1.32 0 2 0 C2 2.97 2 5.94 2 9 C1.01 9.33 0.02 9.66 -1 10 C-0.67 6.7 -0.34 3.4 0 0 Z " fill="#A7A7A7" transform="translate(435,509)"/>
<path d="M0 0 C0.66 0 1.32 0 2 0 C1.88541307 1.43836751 1.75790884 2.87570966 1.625 4.3125 C1.55539062 5.11300781 1.48578125 5.91351563 1.4140625 6.73828125 C1 9 1 9 -1 12 C-1.02712066 10.56260487 -1.04645067 9.12506137 -1.0625 7.6875 C-1.07410156 6.88699219 -1.08570313 6.08648437 -1.09765625 5.26171875 C-1 3 -1 3 0 0 Z " fill="#979895" transform="translate(568,469)"/>
<path d="M0 0 C-1.70828921 2.10633718 -2.52148416 2.93801608 -5.26171875 3.29296875 C-6.06222656 3.25816406 -6.86273437 3.22335937 -7.6875 3.1875 C-8.89986328 3.14689453 -8.89986328 3.14689453 -10.13671875 3.10546875 C-11.05904297 3.05326172 -11.05904297 3.05326172 -12 3 C-12 2.34 -12 1.68 -12 1 C-7.93631321 0.22596442 -4.13574827 -0.0984702 0 0 Z " fill="#D3D3D3" transform="translate(560,367)"/>
<path d="M0 0 C-0.33 0.99 -0.66 1.98 -1 3 C-3.97 2.67 -6.94 2.34 -10 2 C-6.3558226 -0.4294516 -4.28758728 -0.16179575 0 0 Z " fill="#EBECEC" transform="translate(577,365)"/>
<path d="M0 0 C0.33 0.66 0.66 1.32 1 2 C1.66 2 2.32 2 3 2 C2.67 4.97 2.34 7.94 2 11 C0.4375 9.4375 0.4375 9.4375 -1 7 C-0.6875 3.25 -0.6875 3.25 0 0 Z " fill="#242524" transform="translate(482,272)"/>
<path d="M0 0 C0.33 0.99 0.66 1.98 1 3 C0.34 3.66 -0.32 4.32 -1 5 C-0.67 3.35 -0.34 1.7 0 0 Z M-2 5 C0 7 0 7 0.125 9.625 C0.08375 10.40875 0.0425 11.1925 0 12 C-0.99 11.67 -1.98 11.34 -3 11 C-3.042721 9.33388095 -3.04063832 7.66617115 -3 6 C-2.67 5.67 -2.34 5.34 -2 5 Z " fill="#F1F1F1" transform="translate(209,165)"/>
<path d="M0 0 C1.21236328 0.02707031 1.21236328 0.02707031 2.44921875 0.0546875 C3.37154297 0.08949219 3.37154297 0.08949219 4.3125 0.125 C2.8125 1.6875 2.8125 1.6875 0.3125 3.125 C-2.46187543 3.09323234 -4.94036467 2.62864148 -7.6875 2.125 C-4.48369983 -0.01086678 -3.66810033 -0.10632175 0 0 Z " fill="#F4F4F4" transform="translate(134.6875,430.875)"/>
<path d="M0 0 C-0.66 0 -1.32 0 -2 0 C-2 0.66 -2 1.32 -2 2 C-4.64 2.33 -7.28 2.66 -10 3 C-8 0 -8 0 -6.125 -0.75 C-3.80466218 -1.02298092 -2.21024918 -0.71043724 0 0 Z " fill="#878787" transform="translate(215,399)"/>
<path d="M0 0 C3.3 0 6.6 0 10 0 C10 0.33 10 0.66 10 1 C2.57142857 3.14285714 2.57142857 3.14285714 -1 4 C-0.67 2.68 -0.34 1.36 0 0 Z " fill="#E5E5E5" transform="translate(442,384)"/>
<path d="M0 0 C0.33 0 0.66 0 1 0 C0.88490339 1.41750563 0.75746342 2.83401169 0.625 4.25 C0.55539062 5.03890625 0.48578125 5.8278125 0.4140625 6.640625 C-0.01507113 9.085877 -0.78600638 10.84836903 -2 13 C-2.05416188 11.39620659 -2.09286638 9.79188594 -2.125 8.1875 C-2.14820313 7.29417969 -2.17140625 6.40085937 -2.1953125 5.48046875 C-2 3 -2 3 0 0 Z " fill="#9F9F9E" transform="translate(536,622)"/>
<path d="M0 0 C1.3609623 2.7219246 0.70366248 4.1831957 0.0625 7.125 C-0.13214844 8.03507812 -0.32679688 8.94515625 -0.52734375 9.8828125 C-0.68332031 10.58148438 -0.83929688 11.28015625 -1 12 C-2.4606285 9.35261084 -3 8.10551666 -3 5 C-2.34 5 -1.68 5 -1 5 C-0.67 3.35 -0.34 1.7 0 0 Z " fill="#C5C5C2" transform="translate(264,474)"/>
<path d="M0 0 C0 0.33 0 0.66 0 1 C-4.62 1.33 -9.24 1.66 -14 2 C-8.79460379 -1.47026414 -5.91125548 -0.87215245 0 0 Z " fill="#C6C6C5" transform="translate(435,364)"/>
<path d="M0 0 C3.96 0 7.92 0 12 0 C9.17671911 2.82328089 6.91458093 2.79396942 3 3 C2.01 2.01 1.02 1.02 0 0 Z " fill="#ECEDEB" transform="translate(363,326)"/>
<path d="M0 0 C1.231394 3.69418201 0.64432764 6.2056261 0 10 C-0.66 10 -1.32 10 -2 10 C-2.1953125 3.9453125 -2.1953125 3.9453125 -2 2 C-1.34 1.34 -0.68 0.68 0 0 Z " fill="#6B6B68" transform="translate(300,315)"/>
<path d="M0 0 C0.33 0 0.66 0 1 0 C1.33 2.64 1.66 5.28 2 8 C1.01 8 0.02 8 -1 8 C-1.33 9.32 -1.66 10.64 -2 12 C-1 3.42857143 -1 3.42857143 0 0 Z " fill="#797974" transform="translate(319,216)"/>
<path d="M0 0 C2.97 0.33 5.94 0.66 9 1 C5.3558226 3.4294516 3.28758728 3.16179575 -1 3 C-0.67 2.01 -0.34 1.02 0 0 Z " fill="#CACAC8" transform="translate(596,369)"/>
<path d="M0 0 C-0.99 0 -1.98 0 -3 0 C-3 0.66 -3 1.32 -3 2 C-5.875 2.625 -5.875 2.625 -9 3 C-9.66 2.34 -10.32 1.68 -11 1 C-3.57142857 -1.42857143 -3.57142857 -1.42857143 0 0 Z " fill="#2E2F2C" transform="translate(669,353)"/>
<path d="M0 0 C1.32 0 2.64 0 4 0 C3.67 2.31 3.34 4.62 3 7 C2.67 6.34 2.34 5.68 2 5 C1.34 5 0.68 5 0 5 C0 3.35 0 1.7 0 0 Z " fill="#393939" transform="translate(474,309)"/>
<path d="M0 0 C1.2380014 3.57644848 0.74926071 6.33694766 0 10 C-1.5625 8.25 -1.5625 8.25 -3 6 C-2.6875 3.75 -2.6875 3.75 -2 2 C-1.34 2 -0.68 2 0 2 C0 1.34 0 0.68 0 0 Z " fill="#292A29" transform="translate(205,168)"/>
<path d="M0 0 C0.99 0.33 1.98 0.66 3 1 C3.1875 3.375 3.1875 3.375 3 6 C2.01 6.66 1.02 7.32 0 8 C0 5.36 0 2.72 0 0 Z " fill="#121312" transform="translate(200,167)"/>
<path d="M0 0 C0.33 0 0.66 0 1 0 C0.67 3.3 0.34 6.6 0 10 C-2.08120514 5.83758971 -2.24191133 5.17733811 -1 1 C-0.67 0.67 -0.34 0.34 0 0 Z " fill="#424342" transform="translate(509,157)"/>
<path d="M0 0 C0.33 0 0.66 0 1 0 C1.1875 3.375 1.1875 3.375 1 7 C0.01 7.66 -0.98 8.32 -2 9 C-1.125 1.125 -1.125 1.125 0 0 Z " fill="#F4F5F4" transform="translate(215,135)"/>
<path d="M0 0 C1.07310858 3.27185553 0.89263102 5.42947592 0.0625 8.75 C-0.13214844 9.54921875 -0.32679687 10.3484375 -0.52734375 11.171875 C-0.68332031 11.77515625 -0.83929688 12.3784375 -1 13 C-2.04702186 9.2735915 -2.07442057 5.86986958 -2 2 C-1.34 2 -0.68 2 0 2 C0 1.34 0 0.68 0 0 Z " fill="#5E5F5E" transform="translate(122,563)"/>
<path d="M0 0 C0.33 0 0.66 0 1 0 C1 2.31 1 4.62 1 7 C0.01 7.33 -0.98 7.66 -2 8 C-1.125 1.125 -1.125 1.125 0 0 Z " fill="#CECECD" transform="translate(564,480)"/>
<path d="M0 0 C0 0.33 0 0.66 0 1 C-3.63 1.33 -7.26 1.66 -11 2 C-7.39759636 -1.60240364 -4.69302684 -0.93860537 0 0 Z " fill="#BDBDBE" transform="translate(87,417)"/>
<path d="M0 0 C2.97 0 5.94 0 9 0 C6 3 6 3 3.3125 3.1875 C2.1678125 3.0946875 2.1678125 3.0946875 1 3 C0.67 2.01 0.34 1.02 0 0 Z " fill="#F0F0EF" transform="translate(102,411)"/>
<path d="M0 0 C2.31 0 4.62 0 7 0 C7 0.66 7 1.32 7 2 C4.69 2.33 2.38 2.66 0 3 C0 2.01 0 1.02 0 0 Z " fill="#828381" transform="translate(269,389)"/>
<path d="M0 0 C-0.33 0.66 -0.66 1.32 -1 2 C-3.28515625 2.4140625 -3.28515625 2.4140625 -6.0625 2.625 C-6.98160156 2.69976562 -7.90070313 2.77453125 -8.84765625 2.8515625 C-9.55792969 2.90054687 -10.26820313 2.94953125 -11 3 C-4.23255814 -1.51162791 -4.23255814 -1.51162791 0 0 Z " fill="#C9C9C8" transform="translate(488,355)"/>
<path d="M0 0 C0.33 0 0.66 0 1 0 C1.1953125 6.0546875 1.1953125 6.0546875 1 8 C0.34 8.66 -0.32 9.32 -1 10 C-0.67 8.02 -0.34 6.04 0 4 C-0.66 4 -1.32 4 -2 4 C-1.34 2.68 -0.68 1.36 0 0 Z " fill="#8B8C89" transform="translate(545,580)"/>
<path d="M0 0 C1.8871875 0.061875 1.8871875 0.061875 3.8125 0.125 C2.25 1.6875 2.25 1.6875 -0.1875 3.125 C-3.9375 2.8125 -3.9375 2.8125 -7.1875 2.125 C-4.09861478 0.06574319 -3.47814073 -0.1140374 0 0 Z " fill="#9A9A98" transform="translate(368.1875,373.875)"/>
</svg>
